<?xml version="1.0" encoding="UTF-8" standalone="no"?>
<!DOCTYPE svg PUBLIC "-//W3C//DTD SVG 1.1//EN" "http://www.w3.org/Graphics/SVG/1.1/DTD/svg11.dtd">
<svg width="100%" height="100%" viewBox="0 0 363 110" version="1.1" xmlns="http://www.w3.org/2000/svg" xmlns:xlink="http://www.w3.org/1999/xlink" xml:space="preserve" xmlns:serif="http://www.serif.com/" style="fill-rule:evenodd;clip-rule:evenodd;stroke-linejoin:round;stroke-miterlimit:2;">
    <g transform="matrix(1,0,0,1,-329,0)">
        <g id="Logos-EPSI-WIS-Horizontaux-BrandLine" serif:id="Logos EPSI-WIS Horizontaux BrandLine" transform="matrix(1.13796,0,0,0.853386,113.512,-214.343)">
            <rect x="189.363" y="251.167" width="318.931" height="128.898" style="fill:none;"/>
            <g id="Epsi" transform="matrix(0.33814,0,0,0.450898,196.299,258.387)">
                <g id="Logo-EPSI" serif:id="Logo EPSI" transform="matrix(1,0,0,1,-4.24081e-06,0)">
                    <g id="Texte">
                        <path id="path1" d="M210.302,93.543L168.491,93.543C169.625,102.047 176.485,109.247 187.994,109.247C192.62,109.139 197.16,107.965 201.26,105.817C202.341,105.256 203.542,104.963 204.76,104.963C208.758,104.963 212.107,108.119 212.343,112.11C212.343,120.104 195.08,123.449 186.094,123.449C165.458,123.449 149.896,109.559 149.896,87.817C149.886,87.472 149.881,87.127 149.881,86.782C149.881,68.252 164.823,52.868 183.345,52.328L184.961,52.328C199.422,51.984 212.441,61.373 216.68,75.203C217.839,78.507 218.499,81.966 218.636,85.465C218.544,89.957 214.796,93.591 210.302,93.543ZM184.791,66.472C176.152,66.221 168.739,72.88 168.066,81.496L201.628,81.496C201.288,73.129 194.312,66.43 185.937,66.43C185.716,66.43 185.494,66.435 185.272,66.444L184.791,66.472Z" style="fill-rule:nonzero;"/>
                        <path id="path2" d="M270.028,123.335C261.811,123.389 254.039,119.535 249.109,112.961L249.109,139.635C249.109,144.517 245.091,148.535 240.208,148.535C235.325,148.535 231.307,144.517 231.307,139.635L231.307,61.739C231.384,56.897 235.423,52.974 240.265,53.036C245.027,53.067 248.936,56.976 248.967,61.739L248.967,62.362C253.95,55.869 261.702,52.078 269.887,52.129C287.291,52.129 299.906,65.027 299.906,87.619C299.906,110.211 287.433,123.335 270.028,123.335ZM264.359,68.06C258.352,68.187 252.716,71.036 249.052,75.798L249.052,99.78C252.773,104.473 258.373,107.304 264.359,107.518C274.592,107.518 281.367,99.496 281.367,87.676C281.367,75.855 274.649,68.031 264.416,68.031L264.359,68.06Z" style="fill-rule:nonzero;"/>
                        <path id="path3" d="M338.031,123.335C329.216,123.335 315.043,120.501 310.847,114.378C310.014,113.288 309.565,111.952 309.572,110.58C309.647,106.534 312.953,103.228 316.998,103.153C318.283,103.125 319.551,103.459 320.655,104.117C326.198,107.412 332.469,109.291 338.91,109.587C346.62,109.587 350.249,106.498 350.249,102.302C350.249,90.964 309.969,100.176 309.969,73.531C309.969,62.192 319.918,52.214 337.748,52.214C346.592,52.214 358.668,55.049 362.438,60.491C363.173,61.505 363.57,62.726 363.572,63.978C363.42,67.724 360.297,70.724 356.547,70.724C355.377,70.724 354.226,70.432 353.197,69.874C348.529,67.228 343.256,65.832 337.89,65.82C331.427,65.82 327.231,68.655 327.231,72.539C327.231,82.658 367.37,74.239 367.37,101.594C367.37,113.953 356.854,123.335 338.031,123.335Z" style="fill-rule:nonzero;"/>
                        <path id="path4" d="M399.685,35.915C399.688,36.009 399.689,36.103 399.689,36.197C399.689,42.06 394.865,46.884 389.002,46.884C383.14,46.884 378.316,42.06 378.316,36.197C378.316,30.39 383.05,25.591 388.857,25.512C388.943,25.51 389.029,25.509 389.115,25.509C394.82,25.509 399.549,30.126 399.685,35.83L399.685,35.915ZM388.998,122.513C388.989,122.513 388.98,122.513 388.97,122.513C384.149,122.513 380.183,118.547 380.183,113.726C380.183,113.726 380.183,61.739 380.183,61.739C380.26,56.897 384.299,52.974 389.14,53.036L389.31,53.036C394.073,53.052 397.984,56.975 397.984,61.739L397.984,113.669C397.984,118.51 394.01,122.498 389.169,122.513L388.998,122.513Z" style="fill-rule:nonzero;"/>
                    </g>
                    <g id="Copyright" transform="matrix(1,0,0,1,-4.24081e-06,0)">
                        <path id="path41" d="M407.225,45.354C407.225,34.469 416.182,25.512 427.068,25.512L427.068,29.764C418.577,29.764 411.591,36.75 411.591,45.241C411.591,53.731 418.577,60.718 427.068,60.718L427.068,65.197C416.182,65.197 407.225,56.24 407.225,45.354" style="fill-rule:nonzero;"/>
                        <path id="path42" d="M433.361,53.858C431.567,55.42 429.276,56.294 426.898,56.324C426.662,56.35 426.424,56.362 426.187,56.362C422.593,56.362 419.614,53.454 419.528,49.861C419.522,47.134 421.259,44.688 423.836,43.795C422.845,42.533 422.297,40.978 422.277,39.373C422.468,36.188 425.142,33.671 428.332,33.671C428.544,33.671 428.756,33.682 428.967,33.704C429.146,33.687 429.326,33.678 429.506,33.678C432.616,33.678 435.175,36.238 435.175,39.348C435.175,39.356 435.175,39.365 435.175,39.373C435.057,42.069 433.17,44.383 430.554,45.043L433.389,47.877C434.126,46.743 434.835,45.468 435.543,44.107L439.087,46.063C438.241,47.68 437.294,49.242 436.252,50.74L439.37,53.858L435.798,56.353L433.361,53.858ZM430.526,51.024L426.302,46.743C425.133,47.212 424.335,48.32 424.261,49.578C424.261,51.137 425.537,52.157 427.351,52.157C428.521,52.118 429.642,51.678 430.526,50.91M430.781,39.26C430.784,39.22 430.785,39.181 430.785,39.141C430.785,38.084 429.915,37.213 428.857,37.213C428.809,37.213 428.76,37.215 428.712,37.219C428.681,37.218 428.65,37.217 428.62,37.217C427.484,37.217 426.55,38.151 426.55,39.286C426.55,39.344 426.553,39.401 426.557,39.458C426.577,40.543 427.05,41.572 427.861,42.293C429.761,41.556 430.696,40.734 430.696,39.458" style="fill-rule:nonzero;"/>
                        <path id="path43" d="M450.709,45.354C450.709,56.24 441.751,65.197 430.866,65.197L430.866,60.945C439.357,60.945 446.343,53.958 446.343,45.468C446.343,36.977 439.357,29.991 430.866,29.991L430.866,25.512C441.751,25.512 450.709,34.469 450.709,45.354" style="fill-rule:nonzero;"/>
                    </g>
                    <g id="Dessin">
                        <rect id="rect4" x="79.37" y="103.776" width="19.843" height="19.843" style="fill:rgb(147,91,158);"/>
                        <rect id="rect5" x="19.843" y="83.934" width="19.843" height="19.843" style="fill:rgb(143,190,84);"/>
                        <path id="path5" d="M79.37,64.091L79.37,83.934L59.528,83.934L59.528,103.776L39.685,103.776L39.685,123.619L79.37,123.619L79.37,103.776L99.213,103.776L99.213,64.091L79.37,64.091Z" style="fill:rgb(54,182,212);fill-rule:nonzero;"/>
                        <path id="path6" d="M79.37,64.091L39.685,64.091L39.685,103.776L59.528,103.776L59.528,83.934L79.37,83.934L79.37,64.091Z" style="fill:rgb(250,207,83);fill-rule:nonzero;"/>
                        <path id="path7" d="M81.496,0L81.496,19.843L101.339,19.843L101.339,39.685L121.181,39.685L121.181,0L81.496,0Z" style="fill:rgb(217,71,89);fill-rule:nonzero;"/>
                        <path id="path8" d="M39.685,44.249L39.685,24.406L0,24.406L0,123.619L39.685,123.619L39.685,103.776L19.843,103.776L19.843,83.934L39.685,83.934L39.685,64.091L19.843,64.091L19.843,44.249L39.685,44.249Z" style="fill:rgb(75,75,153);fill-rule:nonzero;"/>
                        <path id="path9" d="M59.528,44.249L59.528,24.406L39.685,24.406L39.685,44.249L19.843,44.249L19.843,64.091L79.37,64.091L79.37,44.249L59.528,44.249Z" style="fill:rgb(228,128,62);fill-rule:nonzero;"/>
                    </g>
                </g>
                <g id="Brandline-EPSI" serif:id="Brandline EPSI" transform="matrix(1,0,0,1,-489.976,113.282)">
                    <rect id="path10" x="495.638" y="62.986" width="3.912" height="23.216" style="fill-rule:nonzero;"/>
                    <path id="path11" d="M507.402,63.468C507.884,63.956 508.141,64.625 508.11,65.31C508.105,65.683 508.057,66.054 507.969,66.416C507.969,66.756 507.685,67.294 507.43,68.003L505.786,72.454L503.263,72.454L504.51,67.635C504.063,67.486 503.681,67.185 503.433,66.784C503.161,66.352 503.022,65.849 503.036,65.339C502.998,64.646 503.268,63.971 503.773,63.496C504.784,62.537 506.39,62.537 507.402,63.496L507.402,63.468Z" style="fill-rule:nonzero;"/>
                    <path id="path12" d="M526.252,79.087L513.071,79.087C513.29,80.229 513.939,81.244 514.885,81.921C515.927,82.679 517.198,83.059 518.485,82.998C520.184,83.06 521.832,82.4 523.02,81.184L525.118,83.594C524.361,84.503 523.386,85.205 522.283,85.635C519.438,86.674 516.292,86.531 513.553,85.238C512.227,84.551 511.125,83.498 510.378,82.205C508.887,79.458 508.887,76.135 510.378,73.389C511.095,72.105 512.155,71.045 513.439,70.328C516.195,68.872 519.5,68.872 522.255,70.328C523.523,71.047 524.564,72.108 525.26,73.389C525.998,74.785 526.369,76.346 526.337,77.924C526.309,78.208 526.28,78.576 526.252,79.087ZM514.687,73.417C513.838,74.144 513.275,75.149 513.099,76.252L522.567,76.252C522.437,75.147 521.889,74.132 521.036,73.417C520.165,72.643 519.026,72.237 517.861,72.283C516.704,72.254 515.575,72.647 514.687,73.389L514.687,73.417ZM519.364,62.787L523.956,62.787L518.513,67.096L515.14,67.096L519.364,62.787Z" style="fill-rule:nonzero;"/>
                    <path id="path13" d="M532.573,85.323C531.235,84.604 530.124,83.524 529.37,82.205C527.815,79.465 527.815,76.1 529.37,73.361C530.143,72.078 531.25,71.029 532.573,70.328C534.015,69.576 535.625,69.206 537.25,69.25C538.758,69.19 540.255,69.533 541.587,70.243C542.809,70.863 543.802,71.856 544.422,73.077L541.417,74.835C540.994,74.104 540.375,73.506 539.631,73.106C537.665,72.09 535.256,72.433 533.65,73.956C531.713,76.103 531.713,79.406 533.65,81.553C535.265,83.081 537.684,83.423 539.66,82.403C540.404,82.003 541.022,81.404 541.446,80.674L544.45,82.431C543.812,83.639 542.824,84.627 541.616,85.266C540.296,85.956 538.825,86.306 537.335,86.287C535.693,86.366 534.056,86.035 532.573,85.323Z" style="fill-rule:nonzero;"/>
                    <path id="path14" d="M549.921,85.323C548.617,84.587 547.539,83.509 546.803,82.205C545.302,79.451 545.302,76.114 546.803,73.361C547.57,72.117 548.644,71.092 549.921,70.384C552.81,68.939 556.217,68.939 559.106,70.384C560.411,71.1 561.506,72.146 562.28,73.417C563.808,76.164 563.808,79.515 562.28,82.261C561.528,83.557 560.428,84.618 559.106,85.323C556.217,86.768 552.81,86.768 549.921,85.323ZM558.057,81.638C559.978,79.495 559.978,76.212 558.057,74.069C557.136,73.105 555.846,72.578 554.513,72.624C553.172,72.577 551.873,73.103 550.942,74.069C549.105,76.246 549.105,79.461 550.942,81.638C552.92,83.556 556.107,83.556 558.085,81.638L558.057,81.638Z" style="fill-rule:nonzero;"/>
                    <rect id="path15" x="566.759" y="62.986" width="3.912" height="23.216" style="fill-rule:nonzero;"/>
                    <path id="path16" d="M590.995,79.087L577.871,79.087C578.096,80.219 578.732,81.23 579.657,81.921C580.717,82.665 581.991,83.044 583.285,82.998C584.984,83.06 586.632,82.4 587.82,81.184L589.918,83.594C589.161,84.503 588.186,85.205 587.083,85.635C584.234,86.665 581.088,86.512 578.353,85.209C577.008,84.541 575.885,83.498 575.121,82.205C574.358,80.857 573.966,79.331 573.987,77.783C573.947,76.236 574.329,74.706 575.093,73.361C575.846,72.086 576.948,71.054 578.268,70.384C581.013,68.929 584.31,68.929 587.055,70.384C588.335,71.088 589.38,72.153 590.06,73.446C590.823,74.832 591.196,76.4 591.137,77.981C591.052,78.208 591.024,78.576 590.995,79.087ZM579.43,73.417C578.575,74.139 578.011,75.146 577.843,76.252L587.339,76.252C586.924,73.953 584.904,72.264 582.568,72.264C581.419,72.264 580.306,72.673 579.43,73.417Z" style="fill-rule:nonzero;"/>
                    <path id="path17" d="M618.86,62.986L618.86,86.202L615.118,86.202L615.118,84.047C614.464,84.821 613.639,85.432 612.709,85.833C611.707,86.229 610.639,86.431 609.562,86.428C608.049,86.441 606.557,86.071 605.225,85.351C603.96,84.653 602.918,83.611 602.22,82.346C600.75,79.535 600.75,76.173 602.22,73.361C602.935,72.108 603.973,71.07 605.225,70.356C606.559,69.645 608.051,69.284 609.562,69.307C610.602,69.281 611.635,69.474 612.595,69.874C613.51,70.234 614.319,70.819 614.948,71.575L614.948,63.071L618.86,62.986ZM612.567,82.431C613.329,82.005 613.95,81.364 614.353,80.589C615.231,78.863 615.231,76.816 614.353,75.09C613.942,74.32 613.323,73.682 612.567,73.247C610.984,72.396 609.075,72.396 607.493,73.247C606.751,73.69 606.143,74.328 605.735,75.09C604.858,76.816 604.858,78.863 605.735,80.589C606.136,81.356 606.745,81.995 607.493,82.431C609.075,83.282 610.984,83.282 612.567,82.431Z" style="fill-rule:nonzero;"/>
                    <path id="path18" d="M626.627,63.468C627.109,63.956 627.366,64.625 627.335,65.31C627.344,65.684 627.296,66.056 627.194,66.416C627.048,66.956 626.869,67.486 626.655,68.003L625.039,72.454L622.488,72.454L623.735,67.635C623.291,67.48 622.912,67.18 622.658,66.784C622.394,66.35 622.266,65.846 622.29,65.339C622.256,64.652 622.513,63.983 622.998,63.496C624.01,62.537 625.616,62.537 626.627,63.496L626.627,63.468Z" style="fill-rule:nonzero;"/>
                    <path id="path19" d="M630.879,66.047C630.444,65.616 630.2,65.029 630.2,64.417C630.2,63.805 630.444,63.218 630.879,62.787C631.363,62.34 632.006,62.105 632.665,62.135C633.318,62.107 633.957,62.33 634.45,62.759C634.919,63.162 635.18,63.757 635.159,64.375C635.186,65.021 634.939,65.649 634.479,66.104C634.001,66.585 633.342,66.842 632.665,66.813C631.99,66.813 631.344,66.536 630.879,66.047ZM630.68,69.477L634.62,69.477L634.62,86.202L630.68,86.202L630.68,69.477Z" style="fill-rule:nonzero;"/>
                    <path id="path20" d="M653.811,71.15C655.18,72.629 655.878,74.61 655.739,76.62L655.739,86.202L651.969,86.202L651.969,77.131C652.055,75.932 651.68,74.745 650.92,73.814C650.165,73.076 649.141,72.676 648.085,72.709C646.819,72.645 645.583,73.119 644.683,74.013C643.8,75.051 643.352,76.393 643.436,77.754L643.436,86.258L639.524,86.258L639.524,69.534L643.266,69.534L643.266,71.688C643.918,70.907 644.757,70.303 645.704,69.931C646.765,69.534 647.888,69.333 649.02,69.335C650.79,69.305 652.506,69.954 653.811,71.15Z" style="fill-rule:nonzero;"/>
                    <path id="path21" d="M676.97,69.477L676.97,83.65C676.97,89.546 673.965,92.466 667.956,92.466C666.414,92.48 664.879,92.279 663.392,91.871C662.094,91.536 660.878,90.938 659.82,90.113L661.578,87.279C662.423,87.935 663.385,88.425 664.413,88.724C665.509,89.089 666.658,89.271 667.814,89.263C669.278,89.352 670.718,88.851 671.811,87.874C672.746,86.83 673.208,85.444 673.087,84.047L673.087,83.197C672.407,83.92 671.574,84.482 670.649,84.841C669.645,85.227 668.578,85.42 667.502,85.408C666.004,85.428 664.524,85.077 663.194,84.387C661.943,83.736 660.895,82.756 660.161,81.553C658.643,78.925 658.643,75.677 660.161,73.049C660.884,71.837 661.936,70.854 663.194,70.214C664.529,69.537 666.006,69.187 667.502,69.194C668.625,69.191 669.74,69.392 670.791,69.789C671.762,70.173 672.62,70.797 673.285,71.603L673.285,69.392L676.97,69.477ZM671.698,80.816C672.654,79.927 673.173,78.662 673.115,77.357C673.176,76.069 672.655,74.82 671.698,73.956C669.594,72.181 666.487,72.181 664.384,73.956C663.437,74.827 662.918,76.071 662.967,77.357C662.909,78.662 663.428,79.927 664.384,80.816C666.513,82.647 669.697,82.634 671.811,80.787L671.698,80.816Z" style="fill-rule:nonzero;"/>
                    <path id="path22" d="M697.323,79.087L684.198,79.087C684.417,80.229 685.067,81.244 686.013,81.921C687.055,82.679 688.325,83.059 689.613,82.998C691.312,83.06 692.96,82.4 694.148,81.184L696.246,83.594C695.488,84.503 694.513,85.205 693.411,85.635C690.566,86.674 687.42,86.531 684.68,85.238C683.323,84.564 682.19,83.51 681.42,82.205C679.93,79.458 679.93,76.135 681.42,73.389C682.137,72.105 683.198,71.045 684.482,70.328C687.237,68.872 690.542,68.872 693.298,70.328C694.566,71.047 695.607,72.108 696.302,73.389C697.041,74.785 697.411,76.346 697.38,77.924C697.323,78.208 697.323,78.576 697.323,79.087ZM685.757,73.417C684.909,74.144 684.346,75.149 684.17,76.252L693.638,76.252C693.508,75.147 692.96,74.132 692.107,73.417C691.236,72.643 690.097,72.237 688.932,72.283C687.775,72.254 686.646,72.647 685.757,73.389L685.757,73.417ZM690.435,62.787L695.027,62.787L689.584,67.096L686.211,67.096L690.435,62.787Z" style="fill-rule:nonzero;"/>
                    <path id="path23" d="M715.181,71.15C716.56,72.592 717.279,74.544 717.165,76.535L717.165,86.117L713.254,86.117L713.254,77.046C713.337,75.852 712.973,74.669 712.233,73.729C711.478,72.991 710.454,72.591 709.398,72.624C708.132,72.557 706.894,73.031 705.997,73.928C705.113,74.966 704.666,76.308 704.75,77.669L704.75,86.173L700.838,86.173L700.838,69.449L704.551,69.449L704.551,71.603C705.215,70.835 706.05,70.233 706.989,69.846C708.051,69.454 709.174,69.253 710.306,69.25C712.115,69.227 713.864,69.908 715.181,71.15Z" style="fill-rule:nonzero;"/>
                    <path id="path24" d="M721.786,66.047C721.351,65.616 721.107,65.029 721.107,64.417C721.107,63.805 721.351,63.218 721.786,62.787C722.27,62.34 722.913,62.105 723.572,62.135C724.224,62.112 724.861,62.335 725.357,62.759C725.826,63.162 726.087,63.757 726.066,64.375C726.093,65.027 725.834,65.659 725.357,66.104C724.895,66.59 724.242,66.849 723.572,66.813C722.897,66.813 722.251,66.536 721.786,66.047ZM721.587,69.477L725.499,69.477L725.499,86.202L721.587,86.202L721.587,69.477Z" style="fill-rule:nonzero;"/>
                    <path id="path25" d="M745.824,79.087L732.699,79.087C732.923,80.227 733.572,81.24 734.513,81.921C735.563,82.665 736.828,83.044 738.113,82.998C739.812,83.06 741.461,82.4 742.649,81.184L744.746,83.594C743.989,84.503 743.014,85.205 741.912,85.635C739.063,86.665 735.916,86.512 733.181,85.209C731.842,84.534 730.721,83.491 729.95,82.205C729.186,80.857 728.795,79.331 728.816,77.783C728.794,76.238 729.175,74.714 729.921,73.361C730.65,72.083 731.72,71.033 733.011,70.328C734.374,69.582 735.908,69.201 737.461,69.222C738.983,69.211 740.484,69.582 741.827,70.299C743.095,71.019 744.136,72.079 744.831,73.361C745.57,74.756 745.941,76.317 745.909,77.896C745.88,78.208 745.852,78.576 745.824,79.087ZM734.258,73.417C733.404,74.139 732.839,75.146 732.671,76.252L742.167,76.252C741.753,73.953 739.733,72.264 737.397,72.264C736.247,72.264 735.134,72.673 734.258,73.417Z" style="fill-rule:nonzero;"/>
                    <path id="path26" d="M758.835,69.307L758.835,73.02C758.533,72.992 758.229,72.992 757.928,73.02C756.603,72.937 755.303,73.422 754.356,74.353C753.435,75.405 752.975,76.785 753.08,78.18L753.08,86.287L749.169,86.287L749.169,69.562L752.882,69.562L752.882,72C754.239,70.104 756.514,69.074 758.835,69.307Z" style="fill-rule:nonzero;"/>
                    <path id="path27" d="M761.868,66.047C761.433,65.616 761.189,65.029 761.189,64.417C761.189,63.805 761.433,63.218 761.868,62.787C762.352,62.34 762.995,62.105 763.654,62.135C764.307,62.107 764.946,62.33 765.439,62.759C765.908,63.162 766.169,63.757 766.148,64.375C766.175,65.021 765.928,65.649 765.468,66.104C764.99,66.585 764.331,66.842 763.654,66.813C762.979,66.813 762.333,66.536 761.868,66.047ZM761.698,69.477L765.609,69.477L765.609,86.202L761.698,86.202L761.698,69.477Z" style="fill-rule:nonzero;"/>
                    <path id="path28" d="M785.906,79.087L772.781,79.087C773.005,80.227 773.654,81.24 774.595,81.921C775.653,82.669 776.929,83.048 778.224,82.998C779.921,83.049 781.565,82.391 782.759,81.184L784.857,83.594C784.094,84.496 783.12,85.197 782.022,85.635C779.165,86.673 776.006,86.52 773.263,85.209C771.924,84.534 770.803,83.491 770.031,82.205C769.268,80.857 768.877,79.331 768.898,77.783C768.876,76.238 769.257,74.714 770.003,73.361C770.74,72.089 771.808,71.041 773.093,70.328C775.848,68.872 779.153,68.872 781.909,70.328C783.188,71.032 784.233,72.096 784.913,73.389C785.652,74.785 786.022,76.346 785.991,77.924C785.962,78.208 785.934,78.576 785.906,79.087ZM774.34,73.417C773.486,74.139 772.921,75.146 772.753,76.252L782.362,76.252C782.111,73.868 780.023,72.068 777.628,72.17C776.466,72.137 775.332,72.542 774.454,73.304L774.34,73.417Z" style="fill-rule:nonzero;"/>
                    <path id="path29" d="M495.836,102.869C494.952,101.971 494.952,100.508 495.836,99.609C496.312,99.164 496.942,98.92 497.594,98.929C498.246,98.934 498.877,99.165 499.38,99.581C499.855,99.981 500.126,100.575 500.117,101.197C500.119,101.844 499.864,102.467 499.408,102.926C498.404,103.85 496.84,103.85 495.836,102.926L495.836,102.869ZM495.638,106.299L499.55,106.299L499.55,123.024L495.638,123.024L495.638,106.299Z" style="fill-rule:nonzero;"/>
                    <path id="path30" d="M518.74,107.943C520.097,109.439 520.784,111.428 520.639,113.443L520.639,122.995L516.756,122.995L516.756,113.924C516.838,112.74 516.474,111.566 515.735,110.636C514.982,109.895 513.957,109.495 512.901,109.531C511.638,109.453 510.4,109.917 509.499,110.806C508.596,111.834 508.146,113.184 508.252,114.548L508.252,123.052L504.34,123.052L504.34,106.299L508.054,106.299L508.054,108.454C508.714,107.681 509.55,107.078 510.491,106.696C511.552,106.3 512.676,106.098 513.808,106.101C515.626,106.062 517.393,106.721 518.74,107.943Z" style="fill-rule:nonzero;"/>
                    <path id="path31" d="M529.483,105.42L529.483,106.413L534.076,106.413L534.076,109.531L529.625,109.531L529.625,122.995L525.713,122.995L525.713,109.531L522.879,109.531L522.879,106.413L525.713,106.413L525.713,105.364C525.62,103.792 526.185,102.25 527.272,101.112C529.539,99.314 532.68,99.056 535.209,100.46L534.104,103.294C533.476,102.846 532.721,102.608 531.95,102.614C530.306,102.728 529.483,103.635 529.483,105.42Z" style="fill-rule:nonzero;"/>
                    <path id="path32" d="M538.951,122.117C537.604,121.436 536.489,120.37 535.748,119.055C534.221,116.308 534.221,112.958 535.748,110.211C536.494,108.917 537.596,107.864 538.923,107.178C541.795,105.706 545.207,105.706 548.079,107.178C549.406,107.864 550.508,108.917 551.254,110.211C552.781,112.958 552.781,116.308 551.254,119.055C550.516,120.355 549.411,121.41 548.079,122.088C545.219,123.56 541.82,123.57 538.951,122.117ZM547.087,118.431C549.008,116.289 549.008,113.006 547.087,110.863C546.152,109.904 544.852,109.388 543.515,109.446C542.185,109.382 540.891,109.899 539.972,110.863C538.051,113.006 538.051,116.289 539.972,118.431C540.888,119.402 542.181,119.93 543.515,119.877C544.856,119.923 546.155,119.398 547.087,118.431Z" style="fill-rule:nonzero;"/>
                    <path id="path33" d="M565.398,106.101L565.398,109.843L564.491,109.843C563.169,109.78 561.878,110.262 560.92,111.175C559.993,112.236 559.523,113.624 559.616,115.03L559.616,123.109L555.591,123.109L555.591,106.299L559.332,106.299L559.332,108.737C560.727,106.829 563.052,105.819 565.398,106.101Z" style="fill-rule:nonzero;"/>
                    <path id="path34" d="M594.34,107.943C595.668,109.454 596.333,111.437 596.183,113.443L596.183,122.995L592.271,122.995L592.271,113.924C592.361,112.743 592.007,111.57 591.279,110.636C590.558,109.846 589.509,109.437 588.444,109.531C587.254,109.474 586.099,109.953 585.298,110.835C584.445,111.866 584.019,113.185 584.107,114.52L584.107,123.024L580.252,123.024L580.252,113.953C580.338,112.768 579.996,111.59 579.288,110.636C578.551,109.871 577.514,109.466 576.454,109.531C575.26,109.47 574.099,109.937 573.279,110.806C572.436,111.863 572.02,113.2 572.117,114.548L572.117,123.052L568.205,123.052L568.205,106.299L571.918,106.299L571.918,108.425C572.56,107.684 573.366,107.102 574.271,106.724C575.255,106.302 576.319,106.099 577.389,106.129C578.541,106.097 579.686,106.33 580.734,106.809C581.68,107.281 582.475,108.008 583.03,108.907C583.731,108.012 584.648,107.31 585.694,106.866C586.824,106.354 588.054,106.102 589.294,106.129C591.154,106.007 592.984,106.665 594.34,107.943Z" style="fill-rule:nonzero;"/>
                    <path id="path35" d="M612.737,107.887C614.15,109.282 614.868,111.238 614.693,113.216L614.693,122.995L611.008,122.995L611.008,120.983C610.515,121.736 609.802,122.32 608.967,122.655C607.948,123.056 606.859,123.248 605.764,123.222C604.633,123.248 603.511,123.025 602.476,122.57C601.591,122.199 600.832,121.578 600.293,120.784C599.786,120.02 599.519,119.122 599.528,118.205C599.498,116.812 600.116,115.481 601.2,114.605C602.806,113.577 604.723,113.145 606.614,113.386L610.951,113.386L610.951,113.131C611.046,112.077 610.661,111.034 609.902,110.296C609.011,109.616 607.902,109.284 606.784,109.361C605.823,109.355 604.867,109.498 603.95,109.786C603.107,110.041 602.326,110.465 601.654,111.033L600.123,108.198C601.064,107.485 602.131,106.956 603.269,106.639C604.543,106.288 605.86,106.116 607.181,106.129C609.186,106.006 611.167,106.633 612.737,107.887ZM609.194,119.707C609.938,119.27 610.509,118.589 610.809,117.78L610.809,115.852L606.756,115.852C604.517,115.852 603.383,116.589 603.383,118.063C603.353,118.738 603.675,119.382 604.233,119.764C604.927,120.226 605.754,120.445 606.586,120.387C607.501,120.404 608.403,120.169 609.194,119.707Z" style="fill-rule:nonzero;"/>
                    <path id="path36" d="M629.291,122.088C628.801,122.487 628.23,122.777 627.619,122.939C626.94,123.146 626.231,123.241 625.521,123.222C623.972,123.334 622.441,122.824 621.269,121.805C620.217,120.67 619.674,119.154 619.767,117.609L619.767,109.559L616.932,109.559L616.932,106.441L619.767,106.441L619.767,102.614L623.622,102.614L623.622,106.441L628.101,106.441L628.101,109.559L623.622,109.559L623.622,117.496C623.591,118.171 623.802,118.834 624.217,119.367C624.671,119.822 625.306,120.051 625.946,119.991C626.731,120.027 627.504,119.786 628.129,119.31L629.291,122.088Z" style="fill-rule:nonzero;"/>
                    <path id="path37" d="M632.126,102.869C631.692,102.438 631.447,101.851 631.447,101.239C631.447,100.628 631.692,100.04 632.126,99.609C632.61,99.16 633.251,98.916 633.912,98.929C634.558,98.924 635.183,99.156 635.669,99.581C636.145,99.981 636.416,100.575 636.406,101.197C636.409,101.844 636.154,102.467 635.698,102.926C635.229,103.402 634.58,103.66 633.912,103.635C633.237,103.638 632.589,103.361 632.126,102.869ZM632.126,106.299L636.038,106.299L636.038,123.024L632.126,123.024L632.126,106.299Z" style="fill-rule:nonzero;"/>
                    <path id="path38" d="M656.957,106.299L656.957,128.976L653.046,128.976L653.046,120.983C651.69,122.498 649.719,123.322 647.688,123.222C646.216,123.225 644.765,122.865 643.465,122.173C642.131,121.467 641.037,120.382 640.318,119.055C639.571,117.673 639.2,116.119 639.241,114.548C639.21,112.988 639.581,111.445 640.318,110.069C641.071,108.826 642.163,107.823 643.465,107.178C645.778,105.934 648.523,105.758 650.976,106.696C651.903,107.089 652.72,107.702 653.357,108.482L653.357,106.299L656.957,106.299ZM651.685,118.431C653.606,116.289 653.606,113.006 651.685,110.863C650.748,109.906 649.453,109.382 648.113,109.417C646.783,109.383 645.497,109.907 644.57,110.863C642.649,113.006 642.649,116.289 644.57,118.431C645.491,119.396 646.781,119.923 648.113,119.877C649.453,119.913 650.748,119.389 651.685,118.431Z" style="fill-rule:nonzero;"/>
                    <path id="path39" d="M677.792,106.299L677.792,123.024L674.079,123.024L674.079,120.898C673.437,121.647 672.632,122.238 671.726,122.627C670.769,123.042 669.736,123.255 668.693,123.25C668.489,123.269 668.284,123.279 668.078,123.279C664.44,123.279 661.445,120.285 661.445,116.646C661.445,116.381 661.461,116.115 661.493,115.852L661.493,106.299L665.405,106.299L665.405,115.313C665.295,116.527 665.661,117.737 666.425,118.687C667.164,119.449 668.2,119.853 669.26,119.792C670.501,119.856 671.711,119.381 672.576,118.488C673.469,117.466 673.918,116.129 673.824,114.775L673.824,106.271L677.792,106.299Z" style="fill-rule:nonzero;"/>
                    <path id="path40" d="M698.088,115.909L684.992,115.909C685.206,117.045 685.845,118.059 686.778,118.743C687.836,119.491 689.112,119.87 690.406,119.82C692.105,119.882 693.754,119.222 694.942,118.006L697.039,120.416C696.282,121.325 695.307,122.027 694.205,122.457C691.356,123.487 688.209,123.334 685.474,122.031C684.124,121.373 682.992,120.339 682.214,119.055C680.703,116.314 680.703,112.98 682.214,110.239C682.924,108.949 683.986,107.888 685.276,107.178C686.644,106.445 688.174,106.065 689.726,106.072C691.249,106.056 692.751,106.426 694.091,107.15C695.365,107.861 696.408,108.924 697.096,110.211C697.834,111.607 698.205,113.168 698.173,114.746C698.165,115.135 698.137,115.523 698.088,115.909ZM686.523,110.239C685.685,110.97 685.132,111.975 684.964,113.074L694.488,113.074C694.238,110.701 692.167,108.905 689.783,108.992C688.612,108.963 687.471,109.367 686.58,110.126L686.523,110.239Z" style="fill-rule:nonzero;"/>
                </g>
            </g>
            <g id="Wis" transform="matrix(0.0243561,0,0,0.032478,357.457,258.534)">
                <g id="Logo-WIS" serif:id="Logo WIS">
                    <g id="Texte1" serif:id="Texte">
                        <g id="path30-6" transform="matrix(1,0,0,1,178.526,126.397)">
                            <path d="M3503.17,761.244L3292.98,1450.23C3271.55,1520.28 3203.43,1570.9 3131.41,1570.9L3127.49,1570.9C3052.46,1571.47 2985.58,1522.1 2964.02,1450.23L2798.59,918.879L2633.16,1450.23C2611.76,1520.28 2543.64,1570.9 2469.68,1570.9L2465.77,1570.9C2391.82,1570.9 2323.7,1520.28 2302.3,1450.23L2092.11,761.244C2088.28,749.959 2086.32,738.125 2086.3,726.208C2086.3,665.858 2136.9,607.493 2210.85,607.493C2263.41,607.493 2314.01,642.529 2327.64,695.083L2481.39,1251.72L2658.5,706.762C2677.97,648.369 2734.41,607.55 2800.57,607.55C2860.92,607.55 2917.36,648.425 2936.81,706.762L3113.91,1251.72L3267.67,695.083C3281.3,642.529 3331.9,607.493 3386.41,607.493C3458.41,607.493 3509.01,663.931 3509.01,726.208C3509,738.126 3507.04,749.962 3503.2,761.244" style="fill-rule:nonzero;"/>
                        </g>
                        <g id="path31-9" transform="matrix(1,0,0,1,178.526,126.397)">
                            <path d="M3933.1,370.035C3933.1,370.054 3933.1,370.072 3933.1,370.091C3933.1,451.202 3866.36,517.946 3785.24,517.946C3785.22,517.946 3785.21,517.946 3785.19,517.946C3705.39,517.946 3637.28,451.757 3637.28,370.035C3637.28,288.312 3705.31,224.079 3785.19,224.079C3866.91,224.079 3933.1,288.283 3933.1,370.035M3785.19,1570.9C3785.02,1570.9 3784.85,1570.9 3784.68,1570.9C3717.7,1570.9 3662.59,1515.79 3662.59,1448.82C3662.59,1448.65 3662.59,1448.48 3662.59,1448.31L3662.59,728.306C3662.59,662.145 3717.1,607.635 3789.1,607.635C3855.17,607.958 3909.45,662.23 3909.77,728.306L3909.77,1448.31C3909.77,1516.34 3855.26,1570.9 3785.05,1570.9" style="fill-rule:nonzero;"/>
                        </g>
                        <g id="path32-7" transform="matrix(1,0,0,1,178.526,126.397)">
                            <path d="M4494.39,1571.13C4371.79,1571.13 4175.21,1530.26 4116.81,1446.58C4105.28,1431.5 4099.11,1413 4099.29,1394.02C4099.29,1335.63 4149.89,1290.87 4202.45,1290.87C4220.27,1290.54 4237.82,1295.28 4253.05,1304.53C4327,1347.34 4424.32,1380.42 4506.07,1380.42C4613.1,1380.42 4663.7,1337.61 4663.7,1279.22C4663.7,1123.51 4105.11,1250.02 4105.11,880.243C4105.11,722.608 4243.29,584.419 4490.62,584.419C4613.24,584.419 4780.6,623.339 4833.18,699.25C4843.22,713.501 4848.65,730.491 4848.75,747.921C4848.75,800.476 4802.03,841.465 4751.43,841.465C4735.13,841.517 4719.07,837.492 4704.72,829.757C4640.06,792.961 4566.97,773.516 4492.57,773.32C4403.03,773.32 4344.66,814.195 4344.66,866.863C4344.66,1006.98 4901.3,890.22 4901.3,1269.75C4901.3,1440.96 4755.35,1571.36 4494.53,1571.36" style="fill-rule:nonzero;"/>
                        </g>
                    </g>
                    <g id="Copyright1" serif:id="Copyright" transform="matrix(1.11708,0,0,1.11708,-615.436,-41.0445)">
                        <g id="path33-7" transform="matrix(1,0,0,1,178.526,126.397)">
                            <path d="M5324.97,718.299C5189.43,718.299 5077.9,606.769 5077.9,471.231C5077.9,335.694 5189.43,224.164 5324.97,224.164L5324.97,277.37L5324.97,277.37C5218.62,277.37 5131.11,364.882 5131.11,471.231C5131.11,577.581 5218.62,665.093 5324.97,665.093L5324.97,665.093L5324.97,718.299Z" style="fill-rule:nonzero;"/>
                        </g>
                        <g id="path34-0" transform="matrix(1,0,0,1,178.526,126.397)">
                            <path d="M5383.42,718.328L5383.42,665.121C5489.77,665.121 5577.28,577.609 5577.28,471.26C5577.28,364.911 5489.77,277.398 5383.42,277.398L5383.42,224.164C5517.96,225.605 5627.87,336.692 5627.87,471.246C5627.87,605.799 5517.96,716.886 5383.42,718.328" style="fill-rule:nonzero;"/>
                        </g>
                        <g id="path35-4" transform="matrix(1,0,0,1,178.526,126.397)">
                            <path d="M5405.13,576.935C5382.62,595.502 5356.15,607.748 5324.15,607.748C5271.22,607.748 5231.31,576.935 5231.31,527.953L5231.31,527.244C5231.31,492.094 5250.27,467.206 5285.17,451.389C5271.73,432.425 5265.84,415.049 5265.84,396.085L5265.84,395.291C5265.84,357.364 5296.25,322.611 5349.57,322.611C5396.57,322.611 5427.38,353.424 5427.38,392.145L5427.38,392.939C5427.38,430.072 5403.69,451.786 5369.3,465.222L5406.15,502.072C5415.25,487.899 5424.32,471.657 5433.02,454.677L5477.67,479.169C5466.88,499.444 5454.74,518.971 5441.33,537.619L5481.78,578.268L5437.13,609.449L5405.13,576.935ZM5371.11,542.183L5318.19,488.324C5300.02,497.792 5292.51,511.228 5292.51,524.665L5292.51,525.43C5292.51,544.791 5308.7,557.83 5331.23,557.83C5345.07,557.83 5358.47,551.906 5371.11,542.041M5374.29,396.255L5374.29,395.461C5374.29,379.644 5363.6,369.78 5348.21,369.78C5332.03,369.78 5321.37,381.118 5321.37,397.843L5321.37,398.636C5321.37,410.882 5326.1,419.981 5337.55,432.992C5361.65,423.921 5374.4,413.631 5374.4,396.142" style="fill-rule:nonzero;"/>
                        </g>
                    </g>
                    <g id="Dessin1" serif:id="Dessin" transform="matrix(1,0,0,1,0.000125711,-0.000104404)">
                        <g id="g30">
                            <path id="e5b5836f-7612-4022-a5f5-f79ac3833609" d="M565.824,1320.29L565.824,1697.53L1320.29,1697.53L1320.29,1320.29L1697.5,1320.29L1697.5,565.852L1320.29,565.852L1320.29,943.058L943.058,943.058L943.058,1320.29L565.824,1320.29Z" style="fill:url(#_Linear1);fill-rule:nonzero;"/>
                            <g id="g29">
                                <clipPath id="_clip2">
                                    <path d="M1320.29,565.852L1320.29,943.058L943.058,943.058L943.058,1320.29L565.824,1320.29L565.824,1697.53L1320.29,1697.53L1320.29,1320.29L1697.5,1320.29L1697.5,565.852L1320.29,565.852Z"/>
                                </clipPath>
                                <g clip-path="url(#_clip2)">
                                    <path id="polygon28" d="M1131.68,2263.35L0,1131.68L1131.68,0L2263.35,1131.68L1131.68,2263.35Z" style="fill:url(#_Linear3);fill-rule:nonzero;"/>
                                </g>
                            </g>
                        </g>
                        <path id="polygon30" d="M360.255,1104.92L360.255,350.476L1114.72,350.476L1114.72,727.682L737.49,727.682L737.49,1104.92L360.255,1104.92Z" style="fill:rgb(250,232,46);fill-rule:nonzero;"/>
                    </g>
                </g>
                <g id="Brandline-WIS-v2" serif:id="Brandline WIS v2" transform="matrix(13.8832,0,0,13.8832,-6471.89,1568.01)">
                    <g transform="matrix(1,0,0,1,-15.5929,0)">
                        <g id="path251" serif:id="path25" transform="matrix(1,0,0,1,-25.8973,-0.0946996)">
                            <path d="M745.824,79.087L732.699,79.087C732.923,80.227 733.572,81.24 734.513,81.921C735.563,82.665 736.828,83.044 738.113,82.998C739.812,83.06 741.461,82.4 742.649,81.184L744.746,83.594C743.989,84.503 743.014,85.205 741.912,85.635C739.063,86.665 735.916,86.512 733.181,85.209C731.842,84.534 730.721,83.491 729.95,82.205C729.186,80.857 728.795,79.331 728.816,77.783C728.794,76.238 729.175,74.714 729.921,73.361C730.65,72.083 731.72,71.033 733.011,70.328C734.374,69.582 735.908,69.201 737.461,69.222C738.983,69.211 740.484,69.582 741.827,70.299C743.095,71.019 744.136,72.079 744.831,73.361C745.57,74.756 745.941,76.317 745.909,77.896C745.88,78.208 745.852,78.576 745.824,79.087ZM734.258,73.417C733.404,74.139 732.839,75.146 732.671,76.252L742.167,76.252C741.753,73.953 739.733,72.264 737.397,72.264C736.247,72.264 735.134,72.673 734.258,73.417Z" style="fill-rule:nonzero;"/>
                        </g>
                        <g id="path261" serif:id="path26" transform="matrix(1,0,0,1,-9.68975,-0.0710354)">
                            <path d="M758.835,69.307L758.835,73.02C758.533,72.992 758.229,72.992 757.928,73.02C756.603,72.937 755.303,73.422 754.356,74.353C753.435,75.405 752.975,76.785 753.08,78.18L753.08,86.287L749.169,86.287L749.169,69.562L752.882,69.562L752.882,72C754.239,70.104 756.514,69.074 758.835,69.307Z" style="fill-rule:nonzero;"/>
                        </g>
                        <g id="path281" serif:id="path28" transform="matrix(1,0,0,1,-18.1926,-0.100531)">
                            <path d="M785.906,79.087L772.781,79.087C773.005,80.227 773.654,81.24 774.595,81.921C775.653,82.669 776.929,83.048 778.224,82.998C779.921,83.049 781.565,82.391 782.759,81.184L784.857,83.594C784.094,84.496 783.12,85.197 782.022,85.635C779.165,86.673 776.006,86.52 773.263,85.209C771.924,84.534 770.803,83.491 770.031,82.205C769.268,80.857 768.877,79.331 768.898,77.783C768.876,76.238 769.257,74.714 770.003,73.361C770.74,72.089 771.808,71.041 773.093,70.328C775.848,68.872 779.153,68.872 781.909,70.328C783.188,71.032 784.233,72.096 784.913,73.389C785.652,74.785 786.022,76.346 785.991,77.924C785.962,78.208 785.934,78.576 785.906,79.087ZM774.34,73.417C773.486,74.139 772.921,75.146 772.753,76.252L782.362,76.252C782.111,73.868 780.023,72.068 777.628,72.17C776.466,72.137 775.332,72.542 774.454,73.304L774.34,73.417Z" style="fill-rule:nonzero;"/>
                        </g>
                        <g id="path391" serif:id="path39" transform="matrix(1,0,0,1,60.1273,-37.0634)">
                            <path d="M677.792,106.299L677.792,123.024L674.079,123.024L674.079,120.898C673.437,121.647 672.632,122.238 671.726,122.627C670.769,123.042 669.736,123.255 668.693,123.25C668.489,123.269 668.284,123.279 668.078,123.279C664.44,123.279 661.445,120.285 661.445,116.646C661.445,116.381 661.461,116.115 661.493,115.852L661.493,106.299L665.405,106.299L665.405,115.313C665.295,116.527 665.661,117.737 666.425,118.687C667.164,119.449 668.2,119.853 669.26,119.792C670.501,119.856 671.711,119.381 672.576,118.488C673.469,117.466 673.918,116.129 673.824,114.775L673.824,106.271L677.792,106.299Z" style="fill-rule:nonzero;"/>
                        </g>
                        <g id="path392" serif:id="path39" transform="matrix(1,0,0,1,-32.2972,-37.0634)">
                            <path d="M677.792,106.299L677.792,123.024L674.079,123.024L674.079,120.898C673.437,121.647 672.632,122.238 671.726,122.627C670.769,123.042 669.736,123.255 668.693,123.25C668.489,123.269 668.284,123.279 668.078,123.279C664.44,123.279 661.445,120.285 661.445,116.646C661.445,116.381 661.461,116.115 661.493,115.852L661.493,106.299L665.405,106.299L665.405,115.313C665.295,116.527 665.661,117.737 666.425,118.687C667.164,119.449 668.2,119.853 669.26,119.792C670.501,119.856 671.711,119.381 672.576,118.488C673.469,117.466 673.918,116.129 673.824,114.775L673.824,106.271L677.792,106.299Z" style="fill-rule:nonzero;"/>
                        </g>
                        <g id="path19-0" transform="matrix(0.0828181,0,0,0.0828181,-73.2639,-43.6772)">
                            <path d="M8322.21,1561.89C8308.84,1558.62 8296.11,1553.1 8284.59,1545.56L8302.82,1509.48C8312.96,1516.02 8324.05,1520.95 8335.7,1524.1C8347.98,1527.76 8360.71,1529.67 8373.51,1529.77C8401.86,1529.77 8416.03,1522.3 8416.03,1507.35C8416.03,1500.27 8412.42,1495.32 8405.21,1492.53C8393.89,1488.77 8382.25,1486.1 8370.42,1484.56C8356.61,1482.67 8342.96,1479.75 8329.58,1475.83C8319.1,1472.56 8309.67,1466.6 8302.22,1458.54C8294.49,1450.32 8290.63,1438.86 8290.63,1424.15C8290.23,1405.67 8299.35,1388.21 8314.75,1377.98C8330.84,1366.47 8352.57,1360.71 8379.95,1360.69C8394.01,1360.71 8408.02,1362.29 8421.73,1365.42C8433.73,1367.86 8445.27,1372.15 8455.95,1378.15L8437.72,1414.23C8420.07,1404 8399.98,1398.75 8379.58,1399.04C8365.66,1399.04 8355.06,1401.14 8347.86,1405.3C8340.66,1409.47 8337.03,1415 8337.03,1421.83C8337.03,1429.39 8340.9,1434.78 8348.63,1437.99C8360.27,1442.17 8372.3,1445.16 8384.54,1446.92C8398.03,1448.86 8411.36,1451.77 8424.42,1455.65C8434.64,1458.84 8443.86,1464.6 8451.21,1472.37C8458.77,1480.21 8462.55,1491.36 8462.55,1505.82C8462.55,1524.81 8454.32,1540.01 8437.86,1551.4C8421.4,1562.8 8398.98,1568.47 8370.59,1568.41C8354.32,1568.39 8338.11,1566.22 8322.41,1561.95" style="fill-rule:nonzero;"/>
                        </g>
                        <g id="path14-8" transform="matrix(0.0828181,0,0,0.0828181,33.9502,-43.4641)">
                            <path d="M7568.5,1373.39C7583.99,1381.81 7596.77,1394.47 7605.35,1409.87C7614.46,1426.51 7619.04,1445.25 7618.65,1464.21C7619.02,1483.23 7614.44,1502.03 7605.35,1518.75C7596.81,1534.23 7584.03,1546.96 7568.5,1555.43C7552.24,1564.21 7533.98,1568.66 7515.5,1568.35C7488.15,1568.35 7466.49,1559.24 7450.53,1541L7450.53,1639.42L7403.02,1639.42L7403.02,1362.78L7448.37,1362.78L7448.37,1389.37C7456.1,1379.84 7466.1,1372.39 7477.45,1367.72C7489.57,1362.78 7502.56,1360.33 7515.64,1360.49C7534.12,1360.15 7552.38,1364.6 7568.65,1373.39M7553.42,1510.19C7564.76,1498.55 7570.43,1483.22 7570.43,1464.21C7570.43,1445.2 7564.76,1429.87 7553.42,1418.23C7542.17,1406.58 7526.5,1400.23 7510.31,1400.74C7499.54,1400.59 7488.92,1403.27 7479.52,1408.54C7470.37,1413.77 7462.86,1421.47 7457.87,1430.76C7447.26,1451.78 7447.26,1476.64 7457.87,1497.66C7462.86,1506.95 7470.36,1514.65 7479.52,1519.88C7488.92,1525.14 7499.54,1527.83 7510.31,1527.68C7526.49,1528.17 7542.16,1521.82 7553.42,1510.19" style="fill-rule:nonzero;"/>
                        </g>
                        <g id="path16-7" transform="matrix(0.0828181,0,0,0.0828181,31.7886,-43.4494)">
                            <path d="M8006.09,1360.46L8006.09,1405.67C8002.46,1404.95 7998.76,1404.58 7995.06,1404.54C7976.58,1404.54 7962.14,1409.92 7951.75,1420.7C7941.35,1431.47 7936.16,1446.98 7936.16,1467.24L7936.16,1565.66L7888.65,1565.66L7888.65,1362.76L7933.86,1362.76L7933.86,1392.41C7947.54,1371.13 7971.62,1360.48 8006.09,1360.46" style="fill-rule:nonzero;"/>
                        </g>
                        <g id="path221" serif:id="path22" transform="matrix(1,0,0,1,-13.8289,-0.106999)">
                            <path d="M697.323,79.087L684.198,79.087C684.417,80.229 685.067,81.244 686.013,81.921C687.055,82.679 688.325,83.059 689.613,82.998C691.312,83.06 692.96,82.4 694.148,81.184L696.246,83.594C695.488,84.503 694.513,85.205 693.411,85.635C690.566,86.674 687.42,86.531 684.68,85.238C683.323,84.564 682.19,83.51 681.42,82.205C679.93,79.458 679.93,76.135 681.42,73.389C682.137,72.105 683.198,71.045 684.482,70.328C687.237,68.872 690.542,68.872 693.298,70.328C694.566,71.047 695.607,72.108 696.302,73.389C697.041,74.785 697.411,76.346 697.38,77.924C697.323,78.208 697.323,78.576 697.323,79.087ZM685.757,73.417C684.909,74.144 684.346,75.149 684.17,76.252L693.638,76.252C693.508,75.147 692.96,74.132 692.107,73.417C691.236,72.643 690.097,72.237 688.932,72.283C687.775,72.254 686.646,72.647 685.757,73.389L685.757,73.417ZM690.435,62.787L695.027,62.787L689.584,67.096L686.211,67.096L690.435,62.787Z" style="fill-rule:nonzero;"/>
                        </g>
                        <g id="path241" serif:id="path24" transform="matrix(1,0,0,1,-24.7098,0.014004)">
                            <path d="M721.786,66.047C721.351,65.616 721.107,65.029 721.107,64.417C721.107,63.805 721.351,63.218 721.786,62.787C722.27,62.34 722.913,62.105 723.572,62.135C724.224,62.112 724.861,62.335 725.357,62.759C725.826,63.162 726.087,63.757 726.066,64.375C726.093,65.027 725.834,65.659 725.357,66.104C724.895,66.59 724.242,66.849 723.572,66.813C722.897,66.813 722.251,66.536 721.786,66.047ZM721.587,69.477L725.499,69.477L725.499,86.202L721.587,86.202L721.587,69.477Z" style="fill-rule:nonzero;"/>
                        </g>
                    </g>
                    <g transform="matrix(1,0,0,1,-25.9882,0)">
                        <g id="path393" serif:id="path39" transform="matrix(1,0,0,1,66.7178,-0.226961)">
                            <path d="M677.792,106.299L677.792,123.024L674.079,123.024L674.079,120.898C673.437,121.647 672.632,122.238 671.726,122.627C670.769,123.042 669.736,123.255 668.693,123.25C668.489,123.269 668.284,123.279 668.078,123.279C664.44,123.279 661.445,120.285 661.445,116.646C661.445,116.381 661.461,116.115 661.493,115.852L661.493,106.299L665.405,106.299L665.405,115.313C665.295,116.527 665.661,117.737 666.425,118.687C667.164,119.449 668.2,119.853 669.26,119.792C670.501,119.856 671.711,119.381 672.576,118.488C673.469,117.466 673.918,116.129 673.824,114.775L673.824,106.271L677.792,106.299Z" style="fill-rule:nonzero;"/>
                        </g>
                        <g id="path11-1" transform="matrix(0.0828181,0,0,0.0828181,196.81,-6.83245)">
                            <path d="M6397.8,1283.7L6397.8,1565.63L6352.19,1565.63L6352.19,1539.41C6344.46,1548.94 6334.47,1556.39 6323.13,1561.07C6311,1566 6298.01,1568.46 6284.92,1568.3C6266.56,1568.58 6248.44,1564.13 6232.31,1555.37C6216.85,1546.88 6204.13,1534.17 6195.63,1518.72C6186.54,1502 6181.96,1483.2 6182.33,1464.18C6181.94,1445.22 6186.53,1426.48 6195.63,1409.84C6204.17,1394.46 6216.89,1381.81 6232.31,1373.36C6248.44,1364.6 6266.56,1360.15 6284.92,1360.43C6297.53,1360.28 6310.05,1362.6 6321.77,1367.26C6332.78,1371.73 6342.56,1378.77 6350.29,1387.79L6350.29,1283.67L6397.8,1283.7ZM6321.26,1519.85C6330.41,1514.62 6337.92,1506.92 6342.92,1497.63C6353.53,1476.62 6353.53,1451.77 6342.92,1430.76C6337.93,1421.47 6330.42,1413.76 6321.26,1408.54C6302.07,1398.15 6278.88,1398.15 6259.69,1408.54C6250.55,1413.79 6243.05,1421.48 6238.03,1430.76C6227.39,1451.76 6227.39,1476.63 6238.03,1497.63C6243.02,1506.93 6250.52,1514.63 6259.69,1519.85C6278.88,1530.24 6302.07,1530.24 6321.26,1519.85" style="fill-rule:nonzero;"/>
                        </g>
                    </g>
                    <g>
                        <g id="path101" serif:id="path10" transform="matrix(1,0,0,1,1.67693,1.7053e-13)">
                            <rect x="495.638" y="62.986" width="3.912" height="23.216" style="fill-rule:nonzero;"/>
                        </g>
                        <g id="path111" serif:id="path11" transform="matrix(1,0,0,1,-0.329513,1.7053e-13)">
                            <path d="M507.402,63.468C507.884,63.956 508.141,64.625 508.11,65.31C508.105,65.683 508.057,66.054 507.969,66.416C507.969,66.756 507.685,67.294 507.43,68.003L505.786,72.454L503.263,72.454L504.51,67.635C504.063,67.486 503.681,67.185 503.433,66.784C503.161,66.352 503.022,65.849 503.036,65.339C502.998,64.646 503.268,63.971 503.773,63.496C504.784,62.537 506.39,62.537 507.402,63.496L507.402,63.468Z" style="fill-rule:nonzero;"/>
                        </g>
                        <path id="path121" serif:id="path12" d="M526.252,79.087L513.071,79.087C513.29,80.229 513.939,81.244 514.885,81.921C515.927,82.679 517.198,83.059 518.485,82.998C520.184,83.06 521.832,82.4 523.02,81.184L525.118,83.594C524.361,84.503 523.386,85.205 522.283,85.635C519.438,86.674 516.292,86.531 513.553,85.238C512.227,84.551 511.125,83.498 510.378,82.205C508.887,79.458 508.887,76.135 510.378,73.389C511.095,72.105 512.155,71.045 513.439,70.328C516.195,68.872 519.5,68.872 522.255,70.328C523.523,71.047 524.564,72.108 525.26,73.389C525.998,74.785 526.369,76.346 526.337,77.924C526.309,78.208 526.28,78.576 526.252,79.087ZM514.687,73.417C513.838,74.144 513.275,75.149 513.099,76.252L522.567,76.252C522.437,75.147 521.889,74.132 521.036,73.417C520.165,72.643 519.026,72.237 517.861,72.283C516.704,72.254 515.575,72.647 514.687,73.389L514.687,73.417ZM519.364,62.787L523.956,62.787L518.513,67.096L515.14,67.096L519.364,62.787Z" style="fill-rule:nonzero;"/>
                        <g id="path131" serif:id="path13" transform="matrix(1,0,0,1,-0.305631,1.7053e-13)">
                            <path d="M532.573,85.323C531.235,84.604 530.124,83.524 529.37,82.205C527.815,79.465 527.815,76.1 529.37,73.361C530.143,72.078 531.25,71.029 532.573,70.328C534.015,69.576 535.625,69.206 537.25,69.25C538.758,69.19 540.255,69.533 541.587,70.243C542.809,70.863 543.802,71.856 544.422,73.077L541.417,74.835C540.994,74.104 540.375,73.506 539.631,73.106C537.665,72.09 535.256,72.433 533.65,73.956C531.713,76.103 531.713,79.406 533.65,81.553C535.265,83.081 537.684,83.423 539.66,82.403C540.404,82.003 541.022,81.404 541.446,80.674L544.45,82.431C543.812,83.639 542.824,84.627 541.616,85.266C540.296,85.956 538.825,86.306 537.335,86.287C535.693,86.366 534.056,86.035 532.573,85.323Z" style="fill-rule:nonzero;"/>
                        </g>
                        <g id="path141" serif:id="path14" transform="matrix(1,0,0,1,0.0264826,1.7053e-13)">
                            <path d="M549.921,85.323C548.617,84.587 547.539,83.509 546.803,82.205C545.302,79.451 545.302,76.114 546.803,73.361C547.57,72.117 548.644,71.092 549.921,70.384C552.81,68.939 556.217,68.939 559.106,70.384C560.411,71.1 561.506,72.146 562.28,73.417C563.808,76.164 563.808,79.515 562.28,82.261C561.528,83.557 560.428,84.618 559.106,85.323C556.217,86.768 552.81,86.768 549.921,85.323ZM558.057,81.638C559.978,79.495 559.978,76.212 558.057,74.069C557.136,73.105 555.846,72.578 554.513,72.624C553.172,72.577 551.873,73.103 550.942,74.069C549.105,76.246 549.105,79.461 550.942,81.638C552.92,83.556 556.107,83.556 558.085,81.638L558.057,81.638Z" style="fill-rule:nonzero;"/>
                        </g>
                        <g id="path151" serif:id="path15" transform="matrix(1,0,0,1,-1.74744,1.7053e-13)">
                            <rect x="566.759" y="62.986" width="3.912" height="23.216" style="fill-rule:nonzero;"/>
                        </g>
                        <g id="path161" serif:id="path16" transform="matrix(1,0,0,1,-3.50173,1.7053e-13)">
                            <path d="M590.995,79.087L577.871,79.087C578.096,80.219 578.732,81.23 579.657,81.921C580.717,82.665 581.991,83.044 583.285,82.998C584.984,83.06 586.632,82.4 587.82,81.184L589.918,83.594C589.161,84.503 588.186,85.205 587.083,85.635C584.234,86.665 581.088,86.512 578.353,85.209C577.008,84.541 575.885,83.498 575.121,82.205C574.358,80.857 573.966,79.331 573.987,77.783C573.947,76.236 574.329,74.706 575.093,73.361C575.846,72.086 576.948,71.054 578.268,70.384C581.013,68.929 584.31,68.929 587.055,70.384C588.335,71.088 589.38,72.153 590.06,73.446C590.823,74.832 591.196,76.4 591.137,77.981C591.052,78.208 591.024,78.576 590.995,79.087ZM579.43,73.417C578.575,74.139 578.011,75.146 577.843,76.252L587.339,76.252C586.924,73.953 584.904,72.264 582.568,72.264C581.419,72.264 580.306,72.673 579.43,73.417Z" style="fill-rule:nonzero;"/>
                        </g>
                    </g>
                    <g transform="matrix(1,0,0,1,-12.9941,0)">
                        <g id="path341" serif:id="path34" transform="matrix(1,0,0,1,5.19764,1.7053e-13)">
                            <path d="M594.34,107.943C595.668,109.454 596.333,111.437 596.183,113.443L596.183,122.995L592.271,122.995L592.271,113.924C592.361,112.743 592.007,111.57 591.279,110.636C590.558,109.846 589.509,109.437 588.444,109.531C587.254,109.474 586.099,109.953 585.298,110.835C584.445,111.866 584.019,113.185 584.107,114.52L584.107,123.024L580.252,123.024L580.252,113.953C580.338,112.768 579.996,111.59 579.288,110.636C578.551,109.871 577.514,109.466 576.454,109.531C575.26,109.47 574.099,109.937 573.279,110.806C572.436,111.863 572.02,113.2 572.117,114.548L572.117,123.052L568.205,123.052L568.205,106.299L571.918,106.299L571.918,108.425C572.56,107.684 573.366,107.102 574.271,106.724C575.255,106.302 576.319,106.099 577.389,106.129C578.541,106.097 579.686,106.33 580.734,106.809C581.68,107.281 582.475,108.008 583.03,108.907C583.731,108.012 584.648,107.31 585.694,106.866C586.824,106.354 588.054,106.102 589.294,106.129C591.154,106.007 592.984,106.665 594.34,107.943Z" style="fill-rule:nonzero;"/>
                        </g>
                        <g id="path15-6" transform="matrix(0.0828181,0,0,0.0828181,9.24826,-6.83341)">
                            <path d="M7848,1479.4L7688.78,1479.4C7691.14,1493.64 7698.99,1506.4 7710.63,1514.92C7722.43,1523.65 7737.05,1528.02 7754.51,1528.02C7776.79,1528.02 7795.16,1520.67 7809.62,1505.99L7835.13,1535.24C7825.87,1546.26 7813.97,1554.77 7800.55,1559.96C7766,1572.62 7727.76,1570.84 7694.53,1555.03C7678.13,1546.73 7664.46,1533.86 7655.19,1517.98C7645.8,1501.61 7641.01,1483 7641.33,1464.12C7641.05,1445.45 7645.71,1427.04 7654.82,1410.75C7663.58,1395.13 7676.56,1382.29 7692.27,1373.7C7708.77,1364.7 7727.33,1360.12 7746.12,1360.4C7764.63,1360.09 7782.9,1364.61 7799.13,1373.5C7814.54,1382.07 7827.2,1394.86 7835.61,1410.35C7844.6,1427.23 7849.11,1446.14 7848.71,1465.26C7848.71,1468.55 7848.45,1473.22 7847.94,1479.43M7707.54,1411.96C7696.92,1421.14 7690.08,1433.95 7688.35,1447.88L7803.5,1447.88C7800.34,1419.06 7775.1,1397.32 7746.12,1398.47C7732.05,1398.08 7718.31,1402.89 7707.54,1411.96" style="fill-rule:nonzero;"/>
                        </g>
                        <g id="path16-71" serif:id="path16-7" transform="matrix(0.0828181,0,0,0.0828181,7.5018,-6.61305)">
                            <path d="M8006.09,1360.46L8006.09,1405.67C8002.46,1404.95 7998.76,1404.58 7995.06,1404.54C7976.58,1404.54 7962.14,1409.92 7951.75,1420.7C7941.35,1431.47 7936.16,1446.98 7936.16,1467.24L7936.16,1565.66L7888.65,1565.66L7888.65,1362.76L7933.86,1362.76L7933.86,1392.41C7947.54,1371.13 7971.62,1360.48 8006.09,1360.46" style="fill-rule:nonzero;"/>
                        </g>
                        <g id="path17-4" transform="matrix(0.0828181,0,0,0.0828181,-42.709,-6.83148)">
                            <path d="M8170.24,1554.63C8164.24,1559.41 8157.32,1562.9 8149.92,1564.89C8141.69,1567.19 8133.18,1568.34 8124.63,1568.3C8102.35,1568.3 8085.13,1562.48 8072.96,1550.84C8060.79,1539.19 8054.7,1522.19 8054.7,1499.81L8054.7,1402.27L8021.28,1402.27L8021.28,1364.29L8054.7,1364.29L8054.7,1317.88L8102.21,1317.88L8102.21,1364.26L8156.55,1364.26L8156.55,1402.24L8102.21,1402.24L8102.21,1498.76C8102.21,1508.63 8104.62,1516.19 8109.44,1521.44C8114.26,1526.69 8121.22,1529.29 8130.33,1529.24C8139.91,1529.55 8149.3,1526.54 8156.92,1520.73L8170.24,1554.63Z" style="fill-rule:nonzero;"/>
                        </g>
                        <g id="path18-4" transform="matrix(0.0828181,0,0,0.0828181,-43.3851,-6.6107)">
                            <path d="M8205.96,1321.14C8200.39,1315.85 8197.23,1308.5 8197.23,1300.82C8197.23,1293.14 8200.39,1285.79 8205.96,1280.49C8211.82,1275.03 8219.61,1272.1 8227.62,1272.33C8235.56,1272.1 8243.3,1274.88 8249.27,1280.13C8254.95,1285.01 8258.16,1292.19 8258,1299.68C8258.2,1307.58 8255.12,1315.22 8249.5,1320.78C8243.7,1326.5 8235.79,1329.58 8227.64,1329.28C8219.64,1329.51 8211.85,1326.58 8205.99,1321.12M8203.69,1362.73L8251.2,1362.73L8251.2,1565.63L8203.69,1565.63L8203.69,1362.73Z" style="fill-rule:nonzero;"/>
                        </g>
                        <g id="path19-01" serif:id="path19-0" transform="matrix(0.0828181,0,0,0.0828181,-14.0041,-6.8408)">
                            <path d="M8322.21,1561.89C8308.84,1558.62 8296.11,1553.1 8284.59,1545.56L8302.82,1509.48C8312.96,1516.02 8324.05,1520.95 8335.7,1524.1C8347.98,1527.76 8360.71,1529.67 8373.51,1529.77C8401.86,1529.77 8416.03,1522.3 8416.03,1507.35C8416.03,1500.27 8412.42,1495.32 8405.21,1492.53C8393.89,1488.77 8382.25,1486.1 8370.42,1484.56C8356.61,1482.67 8342.96,1479.75 8329.58,1475.83C8319.1,1472.56 8309.67,1466.6 8302.22,1458.54C8294.49,1450.32 8290.63,1438.86 8290.63,1424.15C8290.23,1405.67 8299.35,1388.21 8314.75,1377.98C8330.84,1366.47 8352.57,1360.71 8379.95,1360.69C8394.01,1360.71 8408.02,1362.29 8421.73,1365.42C8433.73,1367.86 8445.27,1372.15 8455.95,1378.15L8437.72,1414.23C8420.07,1404 8399.98,1398.75 8379.58,1399.04C8365.66,1399.04 8355.06,1401.14 8347.86,1405.3C8340.66,1409.47 8337.03,1415 8337.03,1421.83C8337.03,1429.39 8340.9,1434.78 8348.63,1437.99C8360.27,1442.17 8372.3,1445.16 8384.54,1446.92C8398.03,1448.86 8411.36,1451.77 8424.42,1455.65C8434.64,1458.84 8443.86,1464.6 8451.21,1472.37C8458.77,1480.21 8462.55,1491.36 8462.55,1505.82C8462.55,1524.81 8454.32,1540.01 8437.86,1551.4C8421.4,1562.8 8398.98,1568.47 8370.59,1568.41C8354.32,1568.39 8338.11,1566.22 8322.41,1561.95" style="fill-rule:nonzero;"/>
                        </g>
                        <g id="path222" serif:id="path22" transform="matrix(1,0,0,1,-77.3422,36.7294)">
                            <path d="M697.323,79.087L684.198,79.087C684.417,80.229 685.067,81.244 686.013,81.921C687.055,82.679 688.325,83.059 689.613,82.998C691.312,83.06 692.96,82.4 694.148,81.184L696.246,83.594C695.488,84.503 694.513,85.205 693.411,85.635C690.566,86.674 687.42,86.531 684.68,85.238C683.323,84.564 682.19,83.51 681.42,82.205C679.93,79.458 679.93,76.135 681.42,73.389C682.137,72.105 683.198,71.045 684.482,70.328C687.237,68.872 690.542,68.872 693.298,70.328C694.566,71.047 695.607,72.108 696.302,73.389C697.041,74.785 697.411,76.346 697.38,77.924C697.323,78.208 697.323,78.576 697.323,79.087ZM685.757,73.417C684.909,74.144 684.346,75.149 684.17,76.252L693.638,76.252C693.508,75.147 692.96,74.132 692.107,73.417C691.236,72.643 690.097,72.237 688.932,72.283C687.775,72.254 686.646,72.647 685.757,73.389L685.757,73.417ZM690.435,62.787L695.027,62.787L689.584,67.096L686.211,67.096L690.435,62.787Z" style="fill-rule:nonzero;"/>
                        </g>
                    </g>
                    <g transform="matrix(1,0,0,1,-8.12952,0)">
                        <g id="path11-11" serif:id="path11-1" transform="matrix(0.0828181,0,0,0.0828181,-6.56317,-6.83245)">
                            <path d="M6397.8,1283.7L6397.8,1565.63L6352.19,1565.63L6352.19,1539.41C6344.46,1548.94 6334.47,1556.39 6323.13,1561.07C6311,1566 6298.01,1568.46 6284.92,1568.3C6266.56,1568.58 6248.44,1564.13 6232.31,1555.37C6216.85,1546.88 6204.13,1534.17 6195.63,1518.72C6186.54,1502 6181.96,1483.2 6182.33,1464.18C6181.94,1445.22 6186.53,1426.48 6195.63,1409.84C6204.17,1394.46 6216.89,1381.81 6232.31,1373.36C6248.44,1364.6 6266.56,1360.15 6284.92,1360.43C6297.53,1360.28 6310.05,1362.6 6321.77,1367.26C6332.78,1371.73 6342.56,1378.77 6350.29,1387.79L6350.29,1283.67L6397.8,1283.7ZM6321.26,1519.85C6330.41,1514.62 6337.92,1506.92 6342.92,1497.63C6353.53,1476.62 6353.53,1451.77 6342.92,1430.76C6337.93,1421.47 6330.42,1413.76 6321.26,1408.54C6302.07,1398.15 6278.88,1398.15 6259.69,1408.54C6250.55,1413.79 6243.05,1421.48 6238.03,1430.76C6227.39,1451.76 6227.39,1476.63 6238.03,1497.63C6243.02,1506.93 6250.52,1514.63 6259.69,1519.85C6278.88,1530.24 6302.07,1530.24 6321.26,1519.85" style="fill-rule:nonzero;"/>
                        </g>
                        <g id="path12-7" transform="matrix(0.0828181,0,0,0.0828181,-8.31039,-6.83341)">
                            <path d="M6644.41,1479.4L6485.19,1479.4C6487.56,1493.63 6495.41,1506.39 6507.04,1514.92C6518.84,1523.65 6533.46,1528.02 6550.92,1528.02C6573.2,1528.02 6591.57,1520.67 6606.03,1505.99L6631.54,1535.24C6622.28,1546.26 6610.38,1554.77 6596.96,1559.96C6562.4,1572.62 6524.17,1570.84 6490.94,1555.03C6474.54,1546.73 6460.87,1533.86 6451.6,1517.98C6442.2,1501.61 6437.41,1483 6437.74,1464.12C6437.46,1445.45 6442.12,1427.04 6451.23,1410.75C6459.95,1395.18 6472.87,1382.38 6488.5,1373.78C6505.01,1364.79 6523.57,1360.2 6542.36,1360.49C6560.87,1360.18 6579.14,1364.69 6595.37,1373.58C6610.78,1382.15 6623.44,1394.93 6631.85,1410.43C6640.84,1427.32 6645.35,1446.22 6644.95,1465.34C6644.95,1468.63 6644.66,1473.31 6644.18,1479.52M6503.78,1412.05C6493.16,1421.23 6486.32,1434.03 6484.59,1447.96L6599.74,1447.96C6596.63,1419.1 6571.37,1397.3 6542.36,1398.44C6528.28,1398.05 6514.54,1402.85 6503.78,1411.94" style="fill-rule:nonzero;"/>
                        </g>
                        <g id="path19-02" serif:id="path19-0" transform="matrix(0.0828181,0,0,0.0828181,-142.541,-6.8408)">
                            <path d="M8322.21,1561.89C8308.84,1558.62 8296.11,1553.1 8284.59,1545.56L8302.82,1509.48C8312.96,1516.02 8324.05,1520.95 8335.7,1524.1C8347.98,1527.76 8360.71,1529.67 8373.51,1529.77C8401.86,1529.77 8416.03,1522.3 8416.03,1507.35C8416.03,1500.27 8412.42,1495.32 8405.21,1492.53C8393.89,1488.77 8382.25,1486.1 8370.42,1484.56C8356.61,1482.67 8342.96,1479.75 8329.58,1475.83C8319.1,1472.56 8309.67,1466.6 8302.22,1458.54C8294.49,1450.32 8290.63,1438.86 8290.63,1424.15C8290.23,1405.67 8299.35,1388.21 8314.75,1377.98C8330.84,1366.47 8352.57,1360.71 8379.95,1360.69C8394.01,1360.71 8408.02,1362.29 8421.73,1365.42C8433.73,1367.86 8445.27,1372.15 8455.95,1378.15L8437.72,1414.23C8420.07,1404 8399.98,1398.75 8379.58,1399.04C8365.66,1399.04 8355.06,1401.14 8347.86,1405.3C8340.66,1409.47 8337.03,1415 8337.03,1421.83C8337.03,1429.39 8340.9,1434.78 8348.63,1437.99C8360.27,1442.17 8372.3,1445.16 8384.54,1446.92C8398.03,1448.86 8411.36,1451.77 8424.42,1455.65C8434.64,1458.84 8443.86,1464.6 8451.21,1472.37C8458.77,1480.21 8462.55,1491.36 8462.55,1505.82C8462.55,1524.81 8454.32,1540.01 8437.86,1551.4C8421.4,1562.8 8398.98,1568.47 8370.59,1568.41C8354.32,1568.39 8338.11,1566.22 8322.41,1561.95" style="fill-rule:nonzero;"/>
                        </g>
                    </g>
                    <g transform="matrix(1,0,0,1,-31.1858,0)">
                        <g id="path21-1" transform="matrix(0.0828181,0,0,0.0828181,27.8246,-6.83245)">
                            <path d="M9026.33,1283.7L9026.33,1565.63L8980.72,1565.63L8980.72,1539.41C8973,1548.94 8963.01,1556.39 8951.67,1561.07C8939.54,1566 8926.55,1568.46 8913.46,1568.3C8895.1,1568.58 8876.98,1564.13 8860.85,1555.37C8845.42,1546.87 8832.73,1534.15 8824.25,1518.72C8815.17,1502 8810.58,1483.2 8810.96,1464.18C8810.57,1445.22 8815.15,1426.48 8824.25,1409.84C8832.79,1394.46 8845.51,1381.81 8860.93,1373.36C8877.07,1364.6 8895.19,1360.15 8913.54,1360.43C8926.16,1360.28 8938.68,1362.6 8950.39,1367.26C8961.4,1371.72 8971.17,1378.76 8978.88,1387.79L8978.88,1283.67L9026.33,1283.7ZM8949.94,1519.85C8959.1,1514.62 8966.6,1506.92 8971.6,1497.63C8982.21,1476.62 8982.21,1451.77 8971.6,1430.76C8966.61,1421.47 8959.1,1413.76 8949.94,1408.54C8930.75,1398.15 8907.56,1398.15 8888.37,1408.54C8879.23,1413.79 8871.73,1421.48 8866.72,1430.76C8856.1,1451.77 8856.1,1476.62 8866.72,1497.63C8871.69,1506.93 8879.2,1514.63 8888.37,1519.85C8907.56,1530.24 8930.75,1530.24 8949.94,1519.85" style="fill-rule:nonzero;"/>
                        </g>
                        <g id="path22-2" transform="matrix(0.0828181,0,0,0.0828181,25.2306,-6.6107)">
                            <path d="M9085.21,1321.14C9079.64,1315.85 9076.48,1308.5 9076.48,1300.82C9076.48,1293.14 9079.64,1285.79 9085.21,1280.49C9091.08,1275.04 9098.86,1272.1 9106.87,1272.33C9114.81,1272.1 9122.55,1274.89 9128.52,1280.13C9134.21,1285.01 9137.42,1292.19 9137.25,1299.68C9137.45,1307.58 9134.37,1315.22 9128.75,1320.78C9122.95,1326.5 9115.04,1329.58 9106.89,1329.28C9098.89,1329.51 9091.1,1326.57 9085.24,1321.12M9082.97,1362.73L9130.39,1362.73L9130.39,1565.63L9082.89,1565.63L9082.97,1362.73Z" style="fill-rule:nonzero;"/>
                        </g>
                        <g id="path23-9" transform="matrix(0.0828181,0,0,0.0828181,24.0594,-6.83336)">
                            <path d="M9388.35,1362.73L9388.35,1534.85C9388.35,1606.28 9351.86,1642 9278.9,1642C9260.16,1642.1 9241.49,1639.61 9223.43,1634.6C9207.66,1630.51 9192.92,1623.21 9180.11,1613.14L9201.4,1577.42C9211.41,1585.38 9222.82,1591.37 9235.05,1595.08C9248.35,1599.47 9262.26,1601.72 9276.26,1601.75C9298.55,1601.75 9314.88,1596.68 9325.28,1586.55C9335.67,1576.42 9340.86,1560.97 9340.84,1540.2L9340.84,1529.55C9332.66,1538.47 9322.52,1545.37 9311.22,1549.7C9298.97,1554.37 9285.94,1556.68 9272.84,1556.53C9254.67,1556.8 9236.71,1552.55 9220.59,1544.17C9205.32,1536.24 9192.55,1524.2 9183.74,1509.42C9174.59,1493.89 9169.92,1476.13 9170.25,1458.11C9169.91,1440.18 9174.59,1422.51 9183.74,1407.09C9192.58,1392.42 9205.34,1380.51 9220.59,1372.71C9236.76,1364.46 9254.69,1360.29 9272.84,1360.55C9286.53,1360.37 9300.14,1362.82 9312.92,1367.77C9324.71,1372.41 9335.11,1379.99 9343.13,1389.8L9343.13,1362.81L9388.35,1362.73ZM9324.31,1500.09C9335.82,1489.32 9341.58,1475.33 9341.6,1458.11C9342.14,1442.46 9335.82,1427.33 9324.31,1416.7C9312.76,1406.04 9298.01,1400.72 9280.03,1400.74C9262.06,1400.76 9247.18,1406.08 9235.39,1416.7C9223.88,1427.33 9217.56,1442.46 9218.1,1458.11C9218.1,1475.35 9223.86,1489.34 9235.39,1500.09C9246.92,1510.85 9261.8,1516.23 9280.03,1516.25C9298.04,1516.25 9312.8,1510.87 9324.31,1500.09" style="fill-rule:nonzero;"/>
                        </g>
                        <g id="path24-3" transform="matrix(0.0828181,0,0,0.0828181,21.4585,-6.6107)">
                            <path d="M9447.28,1321.14C9441.73,1315.85 9438.58,1308.5 9438.58,1300.82C9438.58,1293.14 9441.73,1285.79 9447.28,1280.49C9453.11,1275.04 9460.87,1272.11 9468.85,1272.33C9476.77,1272.09 9484.49,1274.88 9490.42,1280.13C9496.09,1285.02 9499.29,1292.2 9499.12,1299.68C9499.32,1307.58 9496.24,1315.22 9490.62,1320.78C9484.86,1326.49 9476.99,1329.57 9468.88,1329.28C9460.9,1329.5 9453.14,1326.57 9447.31,1321.12M9445.04,1362.73L9492.32,1362.73L9492.32,1565.63L9445.04,1565.63L9445.04,1362.73Z" style="fill-rule:nonzero;"/>
                        </g>
                        <g id="path25-2" transform="matrix(0.0828181,0,0,0.0828181,21.11,-6.83148)">
                            <path d="M9671.13,1554.63C9665.13,1559.41 9658.21,1562.9 9650.81,1564.89C9642.58,1567.19 9634.07,1568.34 9625.52,1568.3C9603.24,1568.3 9586.02,1562.48 9573.85,1550.84C9561.68,1539.19 9555.59,1522.19 9555.59,1499.81L9555.59,1402.27L9522.17,1402.27L9522.17,1364.29L9555.59,1364.29L9555.59,1317.88L9603.1,1317.88L9603.1,1364.26L9657.44,1364.26L9657.44,1402.24L9603.1,1402.24L9603.1,1498.76C9603.1,1508.63 9605.51,1516.19 9610.33,1521.44C9615.15,1526.69 9622.11,1529.29 9631.22,1529.24C9640.8,1529.55 9650.19,1526.54 9657.81,1520.73L9671.13,1554.63Z" style="fill-rule:nonzero;"/>
                        </g>
                        <g id="path26-2" transform="matrix(0.0828181,0,0,0.0828181,21.0986,-6.84346)">
                            <path d="M9850.68,1381.92C9866.53,1396.24 9874.45,1417.84 9874.43,1446.72L9874.43,1565.77L9829.59,1565.77L9829.59,1541.06C9823.49,1550.15 9814.83,1557.22 9804.7,1561.38C9792.33,1566.36 9779.08,1568.75 9765.75,1568.41C9752.04,1568.7 9738.43,1566.04 9725.84,1560.61C9715.18,1556.02 9706.02,1548.51 9699.42,1538.96C9693.21,1529.69 9689.97,1518.76 9690.12,1507.61C9689.58,1490.6 9697.13,1474.31 9710.45,1463.73C9724,1452.71 9745.34,1447.2 9774.48,1447.2L9826.92,1447.2L9826.92,1444.17C9826.92,1429.99 9822.67,1419.08 9814.19,1411.51C9805.72,1403.94 9793.11,1400.17 9776.38,1400.17C9764.96,1400.18 9753.6,1401.98 9742.73,1405.5C9732.56,1408.6 9723.08,1413.63 9714.81,1420.33L9696.19,1385.75C9707.71,1377.2 9720.73,1370.88 9734.57,1367.12C9750.01,1362.75 9766,1360.57 9782.05,1360.66C9811.98,1360.66 9834.86,1367.8 9850.68,1382.09M9807.36,1525.72C9816.43,1520.47 9823.36,1512.2 9826.95,1502.36L9826.95,1478.81L9777.94,1478.81C9750.59,1478.81 9736.91,1487.8 9736.89,1505.79C9736.66,1513.91 9740.51,1521.63 9747.16,1526.32C9753.98,1531.38 9763.47,1533.91 9775.64,1533.91C9786.76,1534.11 9797.73,1531.28 9807.36,1525.72" style="fill-rule:nonzero;"/>
                        </g>
                        <g id="rect26" transform="matrix(0.0828181,0,0,0.0828181,3.31136,-17.0787)">
                            <rect x="10108" y="1410.1" width="47.509" height="281.934"/>
                        </g>
                    </g>
                </g>
            </g>
        </g>
    </g>
    <defs>
        <linearGradient id="_Linear1" x1="0" y1="0" x2="1" y2="0" gradientUnits="userSpaceOnUse" gradientTransform="matrix(1131.68,0,0,1131.68,565.824,1131.7)"><stop offset="0" style="stop-color:rgb(17,167,217);stop-opacity:1"/><stop offset="1" style="stop-color:rgb(12,131,198);stop-opacity:1"/></linearGradient>
        <linearGradient id="_Linear3" x1="0" y1="0" x2="1" y2="0" gradientUnits="userSpaceOnUse" gradientTransform="matrix(1.8072e+06,0,0,1.8072e+06,-142546,-282104)"><stop offset="0" style="stop-color:rgb(17,167,217);stop-opacity:1"/><stop offset="1" style="stop-color:rgb(12,131,198);stop-opacity:1"/></linearGradient>
    </defs>
</svg>
