<?xml version="1.0" encoding="UTF-8" standalone="no"?><!DOCTYPE svg PUBLIC "-//W3C//DTD SVG 1.1//EN" "http://www.w3.org/Graphics/SVG/1.1/DTD/svg11.dtd"><svg width="100%" height="100%" viewBox="0 0 2757 1331" version="1.1" xmlns="http://www.w3.org/2000/svg" xmlns:xlink="http://www.w3.org/1999/xlink" xml:space="preserve" xmlns:serif="http://www.serif.com/" style="fill-rule:evenodd;clip-rule:evenodd;stroke-linejoin:round;stroke-miterlimit:2;"><rect id="Logo_myDiL_rose-positif" x="0" y="0" width="2756.25" height="1330.16" style="fill:none;"/><clipPath id="_clip1"><rect id="Logo_myDiL_rose-positif1" serif:id="Logo_myDiL_rose-positif" x="0" y="0" width="2756.25" height="1330.16"/></clipPath><g clip-path="url(#_clip1)"><rect id="rect-Bleu" x="2084.91" y="318.75" width="150" height="150" style="fill:#5bc4ed;"/><rect id="rect-Rose" x="1969.28" y="150" width="75" height="75" style="fill:#e50f7c;"/><rect id="rect-Jaune" x="2131.78" y="0" width="56.25" height="56.25" style="fill:#f9d153;"/><g id="myDiL-positif" serif:id="myDiL positif"><path id="path-L" d="M2422.33,355.874c-7.152,-0.004 -14.181,1.877 -20.376,5.452c-6.189,3.574 -11.33,8.715 -14.904,14.905c-3.575,6.194 -5.456,13.223 -5.452,20.375l-0,653.704c-0.004,9.183 3.646,18 10.139,24.495c6.494,6.492 15.311,10.142 24.494,10.139l301.779,-0c9.755,0.378 19.27,-3.138 26.436,-9.767c7.171,-6.625 11.42,-15.837 11.806,-25.593c0,-3.324 -0.435,-6.634 -1.294,-9.845c-0.862,-3.212 -2.141,-6.298 -3.804,-9.178c-1.667,-2.881 -3.704,-5.532 -6.06,-7.883c-2.352,-2.356 -5.003,-4.394 -7.884,-6.06c-2.88,-1.664 -5.966,-2.943 -9.178,-3.805c-3.211,-0.859 -6.521,-1.294 -9.845,-1.294l-256.575,0l0,-615.265c0.041,-2.985 -0.255,-5.965 -0.88,-8.884c-0.622,-2.914 -1.569,-5.749 -2.824,-8.453c-1.258,-2.709 -2.817,-5.268 -4.647,-7.628c-1.827,-2.357 -3.912,-4.502 -6.217,-6.393c-2.308,-1.89 -4.821,-3.515 -7.492,-4.844c-2.668,-1.33 -5.477,-2.356 -8.374,-3.059c-2.897,-0.703 -5.864,-1.079 -8.845,-1.12l-0.003,0.001Z" style="fill-rule:nonzero;"/><path id="path-i" d="M2155.81,564.381c-9.271,-0.002 -18.173,3.683 -24.73,10.237c-6.554,6.557 -10.239,15.459 -10.237,24.73l-0,450.628c-0.002,9.271 3.683,18.173 10.237,24.73c6.557,6.554 15.459,10.24 24.73,10.238l8.197,-0c9.272,0.002 18.173,-3.684 24.73,-10.238c6.554,-6.557 10.239,-15.459 10.237,-24.73l0,-450.628c-0.002,-3.053 -0.404,-6.092 -1.195,-9.04c-0.789,-2.959 -1.963,-5.801 -3.492,-8.453c-1.526,-2.644 -3.392,-5.077 -5.55,-7.237c-2.165,-2.159 -4.605,-4.025 -7.256,-5.55c-2.646,-1.527 -5.481,-2.701 -8.433,-3.491c-2.948,-0.791 -5.988,-1.193 -9.041,-1.196l-8.197,0Z" style="fill-rule:nonzero;"/><path id="path-D" d="M1449.96,355.874c-8.062,0.002 -15.983,2.126 -22.965,6.158c-6.986,4.028 -12.79,9.826 -16.826,16.807c-4.035,6.987 -6.159,14.915 -6.158,22.984l-0,644.819c-0.001,10.155 4.037,19.904 11.217,27.084c7.18,7.181 16.929,11.219 27.084,11.218l151.85,-0c15.415,-0 30.402,-0.532 44.969,-1.59c14.566,-1.059 28.701,-2.649 42.419,-4.766c13.718,-2.118 27.019,-4.766 39.889,-7.943c12.87,-3.176 25.318,-6.883 37.34,-11.119c12.022,-4.236 23.617,-9.002 34.791,-14.297c11.173,-5.295 21.915,-11.12 32.241,-17.474c10.325,-6.354 20.234,-13.237 29.711,-20.65c9.477,-7.413 18.532,-15.356 27.162,-23.828c8.628,-8.472 16.708,-17.307 24.258,-26.495c7.551,-9.188 14.572,-18.729 21.043,-28.633c6.472,-9.903 12.395,-20.17 17.788,-30.789c5.393,-10.619 10.257,-21.592 14.571,-32.927c4.315,-11.336 8.08,-23.034 11.316,-35.085c3.237,-12.051 5.942,-24.455 8.099,-37.222c2.156,-12.767 3.765,-25.897 4.844,-39.38c1.078,-13.483 1.628,-27.318 1.628,-41.517c0,-14.806 -0.508,-29.146 -1.51,-43.027c-1.002,-13.881 -2.49,-27.307 -4.491,-40.262c-2.004,-12.956 -4.507,-25.447 -7.511,-37.477c-3.006,-12.03 -6.526,-23.608 -10.531,-34.712c-4.006,-11.105 -8.506,-21.748 -13.513,-31.928c-5.007,-10.179 -10.504,-19.888 -16.512,-29.142c-6.009,-9.254 -12.523,-18.048 -19.533,-26.377c-7.01,-8.329 -14.522,-16.189 -22.534,-23.592c-8.011,-7.404 -16.521,-14.35 -25.533,-20.828c-9.013,-6.477 -18.521,-12.49 -28.535,-18.042c-10.014,-5.553 -20.539,-10.65 -31.554,-15.277c-11.016,-4.627 -22.539,-8.791 -34.556,-12.493c-12.017,-3.7 -24.517,-6.931 -37.536,-9.707c-13.018,-2.775 -26.536,-5.092 -40.556,-6.943c-14.02,-1.852 -28.555,-3.233 -43.576,-4.157c-15.021,-0.926 -30.535,-1.393 -46.557,-1.393l-151.733,0.002Zm34.065,73.425l115.785,-0c12.61,-0 24.832,0.379 36.654,1.119c11.821,0.74 23.246,1.833 34.28,3.313c11.034,1.48 21.662,3.347 31.908,5.57c10.245,2.22 20.096,4.805 29.554,7.766c9.457,2.96 18.531,6.3 27.201,10.002c8.669,3.7 16.947,7.756 24.828,12.198c7.881,4.442 15.362,9.271 22.454,14.453c7.094,5.183 13.797,10.728 20.102,16.65c6.305,5.923 12.212,12.223 17.729,18.886c5.517,6.663 10.646,13.679 15.375,21.082c4.729,7.403 9.062,15.194 13.002,23.338c3.941,8.143 7.477,16.649 10.63,25.534c3.153,8.883 5.911,18.145 8.276,27.769c2.364,9.624 4.346,19.602 5.922,29.966c1.575,10.365 2.763,21.117 3.548,32.221c0.79,11.105 1.177,22.573 1.177,34.418c-0,11.806 -0.433,23.274 -1.275,34.418c-0.843,11.144 -2.099,21.955 -3.784,32.437c-1.685,10.483 -3.804,20.636 -6.335,30.457c-2.531,9.82 -5.471,19.317 -8.844,28.475c-3.374,9.159 -7.178,17.979 -11.394,26.475c-4.217,8.497 -8.845,16.66 -13.905,24.495c-5.059,7.835 -10.55,15.341 -16.454,22.514c-5.902,7.172 -12.217,14.022 -18.964,20.533c-6.746,6.511 -13.821,12.62 -21.239,18.317c-7.418,5.697 -15.189,10.982 -23.278,15.865c-8.09,4.884 -16.498,9.365 -25.26,13.434c-8.761,4.069 -17.866,7.727 -27.298,10.982c-9.434,3.256 -19.195,6.109 -29.3,8.551c-10.105,2.44 -20.562,4.471 -31.339,6.099c-10.776,1.628 -21.871,2.854 -33.319,3.666c-11.448,0.816 -23.24,1.215 -35.36,1.215l-111.078,-0l0.001,-582.218Z" style="fill-rule:nonzero;"/><path id="path-y" d="M875.487,564.381c-8.967,-0.001 -17.694,2.926 -24.847,8.335c-7.155,5.413 -12.349,13.017 -14.787,21.651c-2.437,8.631 -1.99,17.827 1.275,26.181l180.933,463.454l-42.36,100.724c-2.628,6.354 -5.432,12.306 -8.394,17.865c-2.961,5.561 -6.079,10.728 -9.374,15.494c-3.295,4.765 -6.766,9.129 -10.394,13.1c-3.628,3.971 -7.413,7.55 -11.374,10.727c-3.962,3.177 -8.1,5.953 -12.395,8.335c-4.294,2.383 -8.746,4.373 -13.375,5.962c-4.628,1.59 -9.433,2.774 -14.394,3.567c-4.962,0.793 -10.08,1.196 -15.375,1.196c-3.778,-0 -8.83,-0.551 -14.238,-1.374c-4.711,-0.717 -9.169,-0.554 -13.218,0.391c-4.05,0.949 -7.684,2.683 -10.728,5.099c-3.044,2.417 -5.503,5.508 -7.197,9.198c-1.694,3.689 -2.628,7.96 -2.628,12.728l-0,2.06c-0,4.829 0.949,9.638 2.687,14.159c1.738,4.522 4.257,8.742 7.374,12.434c3.117,3.693 6.845,6.857 10.982,9.198c2.069,1.169 4.235,2.129 6.491,2.861c2.256,0.736 4.603,1.237 7.002,1.473c5.929,0.576 11.776,0.96 16.767,0.96c9.492,-0 18.709,-0.835 27.672,-2.49c8.962,-1.658 17.67,-4.138 26.102,-7.452c8.433,-3.313 16.592,-7.462 24.495,-12.434c7.903,-4.971 15.552,-10.767 22.926,-17.395c7.373,-6.629 14.473,-14.091 21.317,-22.376c6.844,-8.286 13.434,-17.396 19.749,-27.339c6.314,-9.943 12.355,-20.719 18.14,-32.319c5.785,-11.6 11.316,-24.024 16.572,-37.281l220.764,-555.823c1.499,-3.736 2.38,-7.69 2.608,-11.708c0.225,-4.018 -0.206,-8.045 -1.274,-11.924c-1.071,-3.883 -2.767,-7.566 -5.021,-10.904c-2.248,-3.335 -5.023,-6.283 -8.217,-8.727c-3.2,-2.445 -6.777,-4.353 -10.59,-5.648c-3.81,-1.291 -7.804,-1.954 -11.826,-1.962c-7.894,-0.002 -15.602,2.415 -22.082,6.923c-6.474,4.504 -11.416,10.884 -14.159,18.278l-141.731,381.93c-5.335,17.571 -8.629,29.652 -9.884,36.241l-2.824,0c-5.335,-19.14 -8.943,-31.535 -10.826,-37.183l-133.945,-378.988c-2.504,-7.742 -7.349,-14.521 -13.865,-19.395c-6.522,-4.87 -14.397,-7.598 -22.533,-7.806l-0.001,0.004Z" style="fill-rule:nonzero;"/><path id="path-m" d="M241.925,552.144c-8.865,-0 -17.464,0.485 -25.789,1.472c-8.325,0.987 -16.376,2.459 -24.161,4.432c-7.786,1.97 -15.307,4.437 -22.553,7.394c-7.247,2.956 -14.218,6.413 -20.925,10.355c-6.708,3.941 -13.15,8.369 -19.318,13.296c-6.167,4.927 -12.061,10.345 -17.689,16.258c-5.628,5.913 -10.992,12.32 -16.081,19.219c-5.089,6.898 -9.904,14.296 -14.454,22.18l-2.353,0l-0,-42.223c0.001,-3.002 -0.334,-5.996 -1,-8.923c-0.672,-2.934 -1.672,-5.782 -2.981,-8.492c-1.305,-2.707 -2.91,-5.26 -4.785,-7.609c-1.874,-2.349 -4.005,-4.48 -6.354,-6.354c-2.35,-1.875 -4.902,-3.48 -7.609,-4.785c-2.71,-1.309 -5.559,-2.31 -8.492,-2.983c-2.928,-0.666 -5.921,-1.003 -8.923,-1.002c-6.754,-0 -13.391,1.779 -19.239,5.158c-5.838,3.373 -10.688,8.223 -14.061,14.061c-3.379,5.848 -5.158,12.485 -5.158,19.239l0,444.784c0.002,9.889 3.933,19.383 10.924,26.377c6.996,7.003 16.498,10.942 26.396,10.944l3.962,-0c9.898,-0.002 19.4,-3.941 26.397,-10.944c6.99,-6.994 10.922,-16.488 10.923,-26.377l0,-260.144c0,-12.237 0.745,-23.945 2.255,-35.104c1.51,-11.159 3.786,-21.768 6.806,-31.849c3.02,-10.08 6.785,-19.63 11.315,-28.632c4.531,-9.002 9.826,-17.454 15.866,-25.377c6.119,-7.923 12.63,-14.866 19.533,-20.808c3.451,-2.971 7.001,-5.682 10.649,-8.158c3.647,-2.474 7.393,-4.707 11.237,-6.688c3.844,-1.981 7.786,-3.711 11.826,-5.196c4.039,-1.484 8.177,-2.737 12.413,-3.727c4.237,-0.991 8.571,-1.719 13.003,-2.216c4.432,-0.494 8.962,-0.744 13.59,-0.744c10.081,-0 19.538,0.804 28.358,2.432c8.82,1.628 16.994,4.08 24.554,7.335c3.78,1.628 7.419,3.457 10.884,5.491c3.465,2.034 6.773,4.266 9.923,6.707c3.151,2.44 6.128,5.094 8.963,7.943c2.834,2.85 5.52,5.903 8.04,9.158c5.04,6.512 9.458,13.826 13.238,21.965c3.78,8.139 6.913,17.101 9.433,26.867c2.52,9.767 4.427,20.338 5.687,31.732c1.26,11.394 1.883,23.612 1.883,36.633l-0,271.303c-0.018,10.162 4.006,19.925 11.178,27.123c7.173,7.199 16.921,11.258 27.084,11.276c6.995,-0.005 13.868,-1.852 19.925,-5.354c6.066,-3.496 11.106,-8.529 14.61,-14.59c3.495,-6.059 5.335,-12.932 5.334,-19.926l0,-257.594c0,-11.453 0.804,-22.514 2.412,-33.182c1.609,-10.669 4.021,-20.945 7.237,-30.829c3.216,-9.884 7.237,-19.376 12.061,-28.476c4.824,-9.099 10.453,-17.807 16.885,-26.122c6.433,-8.315 13.159,-15.591 20.2,-21.828c3.52,-3.119 7.133,-5.971 10.806,-8.57c3.672,-2.599 7.413,-4.942 11.237,-7.02c3.824,-2.08 7.732,-3.893 11.708,-5.452c3.976,-1.56 8.011,-2.866 12.139,-3.903c4.128,-1.04 8.35,-1.814 12.63,-2.334c4.28,-0.52 8.629,-0.786 13.061,-0.786c10.59,0 20.415,0.786 29.496,2.372c9.079,1.59 17.414,3.982 24.984,7.158c3.785,1.591 7.379,3.37 10.787,5.354c3.407,1.985 6.618,4.168 9.648,6.551c3.03,2.383 5.879,4.966 8.531,7.746c2.653,2.782 5.119,5.766 7.394,8.943c2.314,3.176 4.486,6.628 6.511,10.355c2.025,3.726 3.892,7.726 5.628,12.002c3.471,8.55 6.374,18.199 8.688,28.946c2.314,10.747 4.04,22.592 5.197,35.536c1.157,12.943 1.745,26.985 1.745,42.125l0,258.32c-0.015,7.1 1.838,14.081 5.374,20.239c3.54,6.16 8.64,11.281 14.787,14.845c6.142,3.567 13.116,5.454 20.219,5.472c10.133,-0.001 19.86,-4.032 27.024,-11.198c7.166,-7.164 11.197,-16.892 11.198,-27.025l0,-282.304c0,-17.69 -0.897,-34.276 -2.687,-49.754c-0.894,-7.739 -2.011,-15.21 -3.353,-22.396c-1.343,-7.187 -2.918,-14.096 -4.707,-20.729c-1.79,-6.634 -3.784,-12.982 -6.021,-19.062c-2.236,-6.081 -4.709,-11.888 -7.393,-17.415c-2.684,-5.528 -5.595,-10.773 -8.727,-15.748c-3.132,-4.975 -6.482,-9.678 -10.061,-14.101c-3.579,-4.422 -7.387,-8.564 -11.413,-12.433c-4.027,-3.87 -8.274,-7.47 -12.748,-10.786c-4.474,-3.317 -9.16,-6.356 -14.081,-9.12c-4.921,-2.763 -10.085,-5.26 -15.453,-7.472c-5.369,-2.212 -10.952,-4.146 -16.768,-5.805c-5.816,-1.658 -11.858,-3.032 -18.121,-4.137c-6.263,-1.105 -12.744,-1.94 -19.454,-2.49c-6.711,-0.554 -13.65,-0.823 -20.808,-0.823c-9.609,-0 -18.915,0.573 -27.926,1.707c-9.012,1.131 -17.729,2.816 -26.142,5.08c-8.414,2.265 -16.523,5.113 -24.338,8.511c-7.815,3.397 -15.336,7.354 -22.553,11.884c-7.217,4.531 -14.13,9.635 -20.749,15.297c-6.618,5.663 -12.943,11.875 -18.964,18.67c-6.02,6.795 -11.737,14.174 -17.16,22.102c-5.422,7.928 -10.551,16.415 -15.375,25.475c-2.432,-8.158 -5.413,-15.924 -8.943,-23.279c-3.53,-7.354 -7.609,-14.296 -12.237,-20.846c-4.628,-6.551 -9.806,-12.708 -15.532,-18.454c-5.727,-5.746 -12.002,-11.081 -18.827,-16.023c-6.746,-5.02 -13.708,-9.413 -20.886,-13.179c-7.178,-3.764 -14.571,-6.903 -22.181,-9.413c-7.609,-2.509 -15.434,-4.393 -23.474,-5.648c-8.041,-1.256 -16.297,-1.883 -24.769,-1.883l-0,-0Z" style="fill-rule:nonzero;"/></g></g></svg>